<?xml version="1.0" encoding="UTF-8"?>
<svg xmlns="http://www.w3.org/2000/svg" version="1.1" viewBox="0 0 84.24 84.24">
  <!-- Generator: Adobe Illustrator 29.1.0, SVG Export Plug-In . SVG Version: 2.1.0 Build 142)  -->
  <defs>
    <style>
      .st0 {
        fill: #be69a9;
      }

      .st1 {
        fill: #009449;
      }

      .st2 {
        stroke: #4889c8;
      }

      .st2, .st3 {
        fill: none;
        stroke-miterlimit: 10;
        stroke-width: 3px;
      }

      .st4 {
        display: none;
      }

      .st5 {
        fill: #4889c8;
      }

      .st3 {
        stroke: #498ac9;
      }

      .st6 {
        fill: #498ac9;
      }
    </style>
  </defs>
  <g id="Layer_1" class="st4">
    <g>
      <path class="st6" d="M-62.12-20.3c-23.06,0-41.82-18.76-41.82-41.82s18.76-41.82,41.82-41.82,41.82,18.76,41.82,41.82S-39.06-20.3-62.12-20.3ZM-62.12-100.94c-21.4,0-38.82,17.41-38.82,38.82s17.41,38.82,38.82,38.82S-23.3-40.71-23.3-62.12s-17.41-38.82-38.82-38.82Z"/>
      <rect class="st6" x="-82.27" y="-74.06" width="3" height="61.25" transform="translate(7.04 -69.9) rotate(-45.05)"/>
      <ellipse class="st6" cx="-54.72" cy="-69.7" rx="17.72" ry="17.57"/>
      <path class="st3" d="M-82.43-41.23"/>
      <rect class="st6" x="-92.26" y="-39.45" width="13.07" height="3" transform="translate(1.85 -71.41) rotate(-44.79)"/>
      <rect class="st6" x="-91" y="-67.97" width="67.56" height="3" transform="translate(30.25 -60.01) rotate(-45.05)"/>
    </g>
  </g>
  <g id="Layer_2" class="st4">
    <g>
      <path class="st6" d="M42.54-20.3C19.48-20.3.72-39.06.72-62.12s18.76-41.82,41.82-41.82,41.82,18.76,41.82,41.82-18.76,41.82-41.82,41.82ZM42.54-100.94c-21.41,0-38.82,17.42-38.82,38.82S21.13-23.3,42.54-23.3s38.82-17.42,38.82-38.82-17.42-38.82-38.82-38.82Z"/>
      <rect class="st6" x="50.66" y="-109.72" width="3" height="75.93" transform="translate(66.09 15.85) rotate(-45.05)"/>
      <rect class="st6" x="1.92" y="-63.19" width="81.86" height="3" transform="translate(56.46 12.17) rotate(-45.22)"/>
      <path class="st3" d="M22.23-41.23"/>
      <rect class="st6" x="39.51" y="-100.42" width="3" height="80.15" transform="translate(54.74 11.32) rotate(-45.05)"/>
    </g>
  </g>
  <g id="Layer_3" class="st4">
    <g>
      <path class="st5" d="M146.36-20.3c-23.06,0-41.82-18.76-41.82-41.82s18.76-41.82,41.82-41.82,41.82,18.76,41.82,41.82-18.76,41.82-41.82,41.82ZM146.36-100.94c-21.41,0-38.82,17.42-38.82,38.82s17.41,38.82,38.82,38.82,38.82-17.42,38.82-38.82-17.42-38.82-38.82-38.82Z"/>
      <rect class="st5" x="163.26" y="-111.3" width="3" height="61.25" transform="translate(105.45 92.92) rotate(-45.05)"/>
      <ellipse class="st5" cx="139.01" cy="-54.34" rx="17.72" ry="17.57"/>
      <path class="st2" d="M126.05-41.23"/>
      <rect class="st5" x="116.22" y="-39.45" width="13.07" height="3" transform="translate(62.37 75.46) rotate(-44.79)"/>
      <rect class="st5" x="145.44" y="-79.51" width="34.83" height="3" transform="translate(103.61 92.57) rotate(-45.25)"/>
    </g>
  </g>
  <g id="Layer_4" class="st4">
    <g>
      <path class="st1" d="M-62.12,83.87c-23.06,0-41.82-18.76-41.82-41.82S-85.18.22-62.12.22-20.3,18.98-20.3,42.04s-18.76,41.82-41.82,41.82ZM-62.12,3.22c-21.41,0-38.82,17.42-38.82,38.82s17.41,38.82,38.82,38.82S-23.3,63.45-23.3,42.04-40.71,3.22-62.12,3.22Z"/>
      <path class="st1" d="M-62.12,25.87c-9.23,0-17.13-6.66-17.13-8.74s7.9-8.74,17.13-8.74,17.13,6.66,17.13,8.74-7.9,8.74-17.13,8.74ZM-77.2,17.13c.8,1.39,7.09,6.74,15.08,6.74s14.28-5.35,15.08-6.74c-.8-1.39-7.09-6.74-15.08-6.74s-14.28,5.35-15.08,6.74ZM-46.97,17.26h0ZM-77.27,17.26h0Z"/>
      <path class="st1" d="M-62.12,75.7c-9.23,0-17.13-6.66-17.13-8.74s7.9-8.74,17.13-8.74,17.13,6.66,17.13,8.74-7.9,8.74-17.13,8.74ZM-77.2,66.96c.8,1.39,7.09,6.74,15.08,6.74s14.28-5.35,15.08-6.74c-.8-1.39-7.09-6.74-15.08-6.74s-14.28,5.35-15.08,6.74ZM-46.97,66.82h0ZM-77.27,66.82"/>
      <path class="st1" d="M-85.99,59.17c-2.08,0-8.74-7.9-8.74-17.13s6.66-17.13,8.74-17.13,8.74,7.9,8.74,17.13-6.66,17.13-8.74,17.13ZM-85.99,26.96c-1.39.8-6.74,7.1-6.74,15.08s5.35,14.28,6.74,15.08c1.39-.8,6.74-7.09,6.74-15.08s-5.35-14.28-6.74-15.08Z"/>
      <path class="st1" d="M-38.39,59.17c-2.08,0-8.74-7.9-8.74-17.13s6.66-17.13,8.74-17.13,8.74,7.9,8.74,17.13-6.66,17.13-8.74,17.13ZM-38.39,26.96c-1.39.8-6.74,7.09-6.74,15.08s5.35,14.28,6.74,15.08c1.39-.8,6.74-7.09,6.74-15.08s-5.35-14.28-6.74-15.08Z"/>
      <path class="st1" d="M-62.19,51.62c-5.7,0-7.22-5.94-7.22-9.45,0-.42.08-10.2,7.22-10.2,6.04,0,7.36,7.36,7.36,10.2,0,2.63-1.32,9.45-7.36,9.45ZM-62.19,33.98c-5.16,0-5.22,8.11-5.22,8.2,0,.3.06,7.45,5.22,7.45s5.36-7.37,5.36-7.45c0-.08-.15-8.2-5.36-8.2Z"/>
    </g>
  </g>
  <g id="Layer_5">
    <g>
      <path class="st1" d="M42.12,83.94C19.92,83.94,1.58,66.59.36,44.44c-.65-11.84,3.8-23.45,12.22-31.86C20.99,4.17,32.6-.29,44.44.36c22.15,1.21,39.5,19.56,39.5,41.76,0,15.15-5.28,24.37-9.8,27.67-1.89,1.38-3.81,1.87-5.41,1.36l-.24-.08-.2-.15c-.28-.21-.57-.43-.85-.64.07.13.12.25.17.37.61,1.52.3,3.3-.86,5.01-2.72,4-10.61,8.28-24.64,8.28ZM42.17,3.3c-10.25,0-20.16,4.09-27.47,11.4-7.81,7.81-11.95,18.59-11.34,29.58,1.13,20.56,18.15,36.66,38.76,36.66,12.87,0,19.98-3.75,22.16-6.96.58-.86.78-1.65.56-2.22-.32-.81-2.77-3.07-5.14-5.25-6.17-5.68-15.49-14.25-18.71-23.97l-.25-.75.49-.72c.34-.45.9-.68,1.5-.65l.78.04.42.67c.09.15,9.18,14.59,25.92,27.21.64.09,1.56-.26,2.53-.97,4.26-3.11,8.57-12.13,8.57-25.25,0-20.61-16.1-37.63-36.66-38.76-.7-.04-1.41-.06-2.11-.06Z"/>
      <polygon class="st1" points="36.55 35.87 25.56 21.46 38.07 34.57 36.55 35.87 36.55 35.87"/>
      <polygon class="st1" points="19.59 40.15 31.11 41.85 30.65 43.79 19.59 40.15 19.59 40.15"/>
      <polygon class="st1" points="22.01 54.58 31.44 47.77 32.49 49.48 22.17 54.84 22.01 54.58 22.01 54.58"/>
      <polygon class="st1" points="34.93 62.95 36.63 51.44 38.58 51.9 34.93 62.95 34.93 62.95"/>
      <path class="st1" d="M63.55,42.02l-11.53-1.7.46-1.95s11.09,3.62,11.07,3.64h0Z"/>
      <polygon class="st1" points="61.09 27.52 51.7 34.4 50.65 32.69 61 27.38 61.09 27.52 61.09 27.52"/>
      <polygon class="st1" points="48.2 19.22 46.51 30.73 44.56 30.27 48.2 19.22 48.2 19.22"/>
    </g>
  </g>
  <g id="Layer_6" class="st4">
    <g>
      <path class="st1" d="M146.36,83.44c-22.78,0-41.32-18.54-41.32-41.32S123.58.8,146.36.8s41.32,18.54,41.32,41.32-18.54,41.32-41.32,41.32ZM146.36,2.8c-21.68,0-39.32,17.64-39.32,39.32s17.64,39.32,39.32,39.32,39.32-17.64,39.32-39.32S168.04,2.8,146.36,2.8Z"/>
      <circle class="st1" cx="150.92" cy="40.21" r="10.08"/>
    </g>
  </g>
  <g id="Layer_7" class="st4">
    <g>
      <path class="st0" d="M-62.12,188.18c-23.06,0-41.82-18.76-41.82-41.82s18.76-41.82,41.82-41.82,41.82,18.76,41.82,41.82-18.76,41.82-41.82,41.82ZM-62.12,107.54c-21.41,0-38.82,17.41-38.82,38.82s17.41,38.82,38.82,38.82,38.82-17.41,38.82-38.82-17.42-38.82-38.82-38.82Z"/>
      <path class="st0" d="M-62.12,164.73c-10.13,0-18.37-8.24-18.37-18.37s8.24-18.37,18.37-18.37,18.37,8.24,18.37,18.37-8.24,18.37-18.37,18.37ZM-62.12,129.99c-9.03,0-16.37,7.35-16.37,16.37s7.35,16.37,16.37,16.37,16.37-7.35,16.37-16.37-7.35-16.37-16.37-16.37Z"/>
      <path class="st0" d="M-62.12,174.24c-15.37,0-27.88-12.51-27.88-27.88s12.51-27.88,27.88-27.88,27.88,12.51,27.88,27.88-12.51,27.88-27.88,27.88ZM-62.12,120.48c-14.27,0-25.88,11.61-25.88,25.88s11.61,25.88,25.88,25.88,25.88-11.61,25.88-25.88-11.61-25.88-25.88-25.88Z"/>
    </g>
  </g>
  <g id="Layer_8" class="st4">
    <g>
      <path class="st0" d="M42.12,188.48C19.06,188.48.3,169.72.3,146.66s18.76-41.82,41.82-41.82,41.82,18.76,41.82,41.82-18.76,41.82-41.82,41.82ZM42.12,107.84c-21.41,0-38.82,17.41-38.82,38.82s17.42,38.82,38.82,38.82,38.82-17.41,38.82-38.82-17.41-38.82-38.82-38.82Z"/>
      <path class="st0" d="M42.12,161.1c-7.96,0-14.44-6.48-14.44-14.44s6.48-14.44,14.44-14.44,14.44,6.48,14.44,14.44-6.48,14.44-14.44,14.44ZM42.12,134.22c-6.86,0-12.44,5.58-12.44,12.44s5.58,12.44,12.44,12.44,12.44-5.58,12.44-12.44-5.58-12.44-12.44-12.44Z"/>
      <path class="st0" d="M64.62,169.16H19.62v-45.01h45.01v45.01ZM21.62,167.16h41.01v-41.01H21.62v41.01Z"/>
    </g>
  </g>
  <g id="Layer_9" class="st4">
    <g>
      <path class="st0" d="M146.36,187.88c-23.06,0-41.82-18.76-41.82-41.82s18.76-41.82,41.82-41.82,41.82,18.76,41.82,41.82-18.76,41.82-41.82,41.82ZM146.36,107.24c-21.41,0-38.82,17.41-38.82,38.82s17.41,38.82,38.82,38.82,38.82-17.41,38.82-38.82-17.42-38.82-38.82-38.82Z"/>
      <path class="st0" d="M146.36,173.94c-15.37,0-27.88-12.51-27.88-27.88s12.51-27.88,27.88-27.88,27.88,12.51,27.88,27.88-12.51,27.88-27.88,27.88ZM146.36,120.18c-14.27,0-25.88,11.61-25.88,25.88s11.61,25.88,25.88,25.88,25.88-11.61,25.88-25.88-11.61-25.88-25.88-25.88Z"/>
      <path class="st0" d="M160.8,160.5h-28.88v-28.88h28.88v28.88ZM133.92,158.5h24.88v-24.88h-24.88v24.88Z"/>
    </g>
  </g>
</svg>