<?xml version="1.0" encoding="UTF-8"?>
<svg xmlns="http://www.w3.org/2000/svg" version="1.1" viewBox="0 0 84.24 84.24">
 
  <defs>
    <style>
      .st0 {
        fill: #be69a9;
      }

      .st1 {
        fill: #009449;
      }

      .st2 {
        stroke: #4889c8;
      }

      .st2, .st3 {
        fill: none;
        stroke-miterlimit: 10;
        stroke-width: 3px;
      }

      .st4 {
        display: none;
      }

      .st5 {
        fill: #4889c8;
      }

      .st3 {
        stroke: #498ac9;
      }

      .st6 {
        fill: #498ac9;
      }
    </style>
  </defs>

<circle cx="42.12" cy="42.12" r="41" fill="black" opacity="0.8"/>

  <g id="Layer_1">

    <g>
      <path class="st6" d="M42.12,83.94C19.06,83.94.3,65.18.3,42.12S19.06.3,42.12.3s41.82,18.76,41.82,41.82-18.76,41.82-41.82,41.82ZM42.12,3.3C20.72,3.3,3.3,20.71,3.3,42.12s17.41,38.82,38.82,38.82,38.82-17.41,38.82-38.82S63.52,3.3,42.12,3.3Z"/>
      <rect class="st6" x="21.97" y="30.18" width="3" height="61.25" transform="translate(-36.14 34.46) rotate(-45.05)"/>
      <ellipse class="st6" cx="49.52" cy="34.54" rx="17.72" ry="17.57"/>
      <path class="st3" d="M21.81,63.01"/>
      <rect class="st6" x="11.98" y="64.79" width="13.07" height="3" transform="translate(-41.32 32.29) rotate(-44.79)"/>
      <rect class="st6" x="13.24" y="36.27" width="67.56" height="3" transform="translate(-12.93 44.36) rotate(-45.05)"/>
    </g>
  </g>
  <g id="Layer_2" class="st4">
    <g>
      <path class="st6" d="M146.78,83.94c-23.06,0-41.82-18.76-41.82-41.82S123.72.3,146.78.3s41.82,18.76,41.82,41.82-18.76,41.82-41.82,41.82ZM146.78,3.3c-21.41,0-38.82,17.42-38.82,38.82s17.42,38.82,38.82,38.82,38.82-17.42,38.82-38.82S168.18,3.3,146.78,3.3Z"/>
      <rect class="st6" x="154.9" y="-5.48" width="3" height="75.93" transform="translate(22.91 120.22) rotate(-45.05)"/>
      <rect class="st6" x="106.16" y="41.05" width="81.86" height="3" transform="translate(13.29 116.99) rotate(-45.22)"/>
      <path class="st3" d="M126.47,63.01"/>
      <rect class="st6" x="143.75" y="3.82" width="3" height="80.15" transform="translate(11.56 115.68) rotate(-45.05)"/>
    </g>
  </g>
  <g id="Layer_3" class="st4">
    <g>
      <path class="st5" d="M250.6,83.94c-23.06,0-41.82-18.76-41.82-41.82S227.54.3,250.6.3s41.82,18.76,41.82,41.82-18.76,41.82-41.82,41.82ZM250.6,3.3c-21.41,0-38.82,17.42-38.82,38.82s17.41,38.82,38.82,38.82,38.82-17.42,38.82-38.82S272,3.3,250.6,3.3Z"/>
      <rect class="st5" x="267.5" y="-7.06" width="3" height="61.25" transform="translate(62.27 197.29) rotate(-45.05)"/>
      <ellipse class="st5" cx="243.25" cy="49.9" rx="17.72" ry="17.57"/>
      <path class="st2" d="M230.29,63.01"/>
      <rect class="st5" x="220.46" y="64.79" width="13.07" height="3" transform="translate(19.2 179.16) rotate(-44.79)"/>
      <rect class="st5" x="249.68" y="24.73" width="34.83" height="3" transform="translate(60.43 197.45) rotate(-45.25)"/>
    </g>
  </g>
  <g id="Layer_4" class="st4">
    <g>
      <path class="st1" d="M42.12,188.11C19.06,188.11.3,169.34.3,146.28s18.76-41.82,41.82-41.82,41.82,18.76,41.82,41.82-18.76,41.82-41.82,41.82ZM42.12,107.46c-21.41,0-38.82,17.42-38.82,38.82s17.41,38.82,38.82,38.82,38.82-17.42,38.82-38.82-17.41-38.82-38.82-38.82Z"/>
      <path class="st1" d="M42.12,130.11c-9.23,0-17.13-6.66-17.13-8.74s7.9-8.74,17.13-8.74,17.13,6.66,17.13,8.74-7.9,8.74-17.13,8.74ZM27.04,121.37c.8,1.39,7.09,6.74,15.08,6.74s14.28-5.35,15.08-6.74c-.8-1.39-7.09-6.74-15.08-6.74s-14.28,5.35-15.08,6.74ZM57.27,121.5h0ZM26.97,121.5h0Z"/>
      <path class="st1" d="M42.12,179.94c-9.23,0-17.13-6.66-17.13-8.74s7.9-8.74,17.13-8.74,17.13,6.66,17.13,8.74-7.9,8.74-17.13,8.74ZM27.04,171.2c.8,1.39,7.09,6.74,15.08,6.74s14.28-5.35,15.08-6.74c-.8-1.39-7.09-6.74-15.08-6.74s-14.28,5.35-15.08,6.74ZM57.27,171.06h0ZM26.97,171.06"/>
      <path class="st1" d="M18.25,163.41c-2.08,0-8.74-7.9-8.74-17.13s6.66-17.13,8.74-17.13,8.74,7.9,8.74,17.13-6.66,17.13-8.74,17.13ZM18.25,131.2c-1.39.8-6.74,7.1-6.74,15.08s5.35,14.28,6.74,15.08c1.39-.8,6.74-7.09,6.74-15.08s-5.35-14.28-6.74-15.08Z"/>
      <path class="st1" d="M65.85,163.41c-2.08,0-8.74-7.9-8.74-17.13s6.66-17.13,8.74-17.13,8.74,7.9,8.74,17.13-6.66,17.13-8.74,17.13ZM65.85,131.2c-1.39.8-6.74,7.09-6.74,15.08s5.35,14.28,6.74,15.08c1.39-.8,6.74-7.09,6.74-15.08s-5.35-14.28-6.74-15.08Z"/>
      <path class="st1" d="M42.05,155.86c-5.7,0-7.22-5.94-7.22-9.45,0-.42.08-10.2,7.22-10.2,6.04,0,7.36,7.36,7.36,10.2,0,2.63-1.32,9.45-7.36,9.45ZM42.05,138.22c-5.16,0-5.22,8.11-5.22,8.2,0,.3.06,7.45,5.22,7.45s5.36-7.37,5.36-7.45c0-.08-.15-8.2-5.36-8.2Z"/>
    </g>
  </g>
  <g id="Layer_5" class="st4">
    <g>
      <path class="st1" d="M146.36,188.18c-22.2,0-40.54-17.35-41.76-39.5-.65-11.84,3.8-23.45,12.22-31.86,8.41-8.41,20.02-12.87,31.86-12.22,22.15,1.21,39.5,19.56,39.5,41.76,0,15.15-5.28,24.37-9.8,27.67-1.89,1.38-3.81,1.87-5.41,1.36l-.24-.08-.2-.15c-.28-.21-.57-.43-.85-.64.07.13.12.25.17.37.61,1.52.3,3.3-.86,5.01-2.72,4-10.61,8.28-24.64,8.28ZM146.41,107.54c-10.25,0-20.16,4.09-27.47,11.4-7.81,7.81-11.95,18.59-11.34,29.58,1.13,20.56,18.15,36.66,38.76,36.66,12.87,0,19.98-3.75,22.16-6.96.58-.86.78-1.65.56-2.22-.32-.81-2.77-3.07-5.14-5.25-6.17-5.68-15.49-14.25-18.71-23.97l-.25-.75.49-.72c.34-.45.9-.68,1.5-.65l.78.04.42.67c.09.15,9.18,14.59,25.92,27.21.64.09,1.56-.26,2.53-.97,4.26-3.11,8.57-12.13,8.57-25.25,0-20.61-16.1-37.63-36.66-38.76-.7-.04-1.41-.06-2.11-.06Z"/>
      <polygon class="st1" points="140.79 140.11 129.8 125.7 142.31 138.81 140.79 140.11 140.79 140.11"/>
      <polygon class="st1" points="123.83 144.39 135.35 146.09 134.89 148.03 123.83 144.39 123.83 144.39"/>
      <polygon class="st1" points="126.25 158.82 135.68 152.01 136.73 153.72 126.41 159.08 126.25 158.82 126.25 158.82"/>
      <polygon class="st1" points="139.17 167.19 140.87 155.68 142.82 156.14 139.17 167.19 139.17 167.19"/>
      <path class="st1" d="M167.79,146.26l-11.53-1.7.46-1.95s11.09,3.62,11.07,3.64h0Z"/>
      <polygon class="st1" points="165.33 131.76 155.94 138.64 154.89 136.93 165.24 131.62 165.33 131.76 165.33 131.76"/>
      <polygon class="st1" points="152.44 123.46 150.75 134.97 148.8 134.51 152.44 123.46 152.44 123.46"/>
    </g>
  </g>
  <g id="Layer_6" class="st4">
    <g>
      <path class="st1" d="M250.6,187.68c-22.78,0-41.32-18.54-41.32-41.32s18.54-41.32,41.32-41.32,41.32,18.54,41.32,41.32-18.54,41.32-41.32,41.32ZM250.6,107.04c-21.68,0-39.32,17.64-39.32,39.32s17.64,39.32,39.32,39.32,39.32-17.64,39.32-39.32-17.64-39.32-39.32-39.32Z"/>
      <circle class="st1" cx="255.16" cy="144.45" r="10.08"/>
    </g>
  </g>
  <g id="Layer_7" class="st4">
    <g>
      <path class="st0" d="M42.12,292.42c-23.06,0-41.82-18.76-41.82-41.82s18.76-41.82,41.82-41.82,41.82,18.76,41.82,41.82-18.76,41.82-41.82,41.82ZM42.12,211.78c-21.41,0-38.82,17.41-38.82,38.82s17.41,38.82,38.82,38.82,38.82-17.41,38.82-38.82-17.42-38.82-38.82-38.82Z"/>
      <path class="st0" d="M42.12,268.97c-10.13,0-18.37-8.24-18.37-18.37s8.24-18.37,18.37-18.37,18.37,8.24,18.37,18.37-8.24,18.37-18.37,18.37ZM42.12,234.23c-9.03,0-16.37,7.35-16.37,16.37s7.35,16.37,16.37,16.37,16.37-7.35,16.37-16.37-7.35-16.37-16.37-16.37Z"/>
      <path class="st0" d="M42.12,278.48c-15.37,0-27.88-12.51-27.88-27.88s12.51-27.88,27.88-27.88,27.88,12.51,27.88,27.88-12.51,27.88-27.88,27.88ZM42.12,224.72c-14.27,0-25.88,11.61-25.88,25.88s11.61,25.88,25.88,25.88,25.88-11.61,25.88-25.88-11.61-25.88-25.88-25.88Z"/>
    </g>
  </g>
  <g id="Layer_8" class="st4">
    <g>
      <path class="st0" d="M146.36,292.72c-23.06,0-41.82-18.76-41.82-41.82s18.76-41.82,41.82-41.82,41.82,18.76,41.82,41.82-18.76,41.82-41.82,41.82ZM146.36,212.08c-21.41,0-38.82,17.41-38.82,38.82s17.42,38.82,38.82,38.82,38.82-17.41,38.82-38.82-17.41-38.82-38.82-38.82Z"/>
      <path class="st0" d="M146.36,265.34c-7.96,0-14.44-6.48-14.44-14.44s6.48-14.44,14.44-14.44,14.44,6.48,14.44,14.44-6.48,14.44-14.44,14.44ZM146.36,238.46c-6.86,0-12.44,5.58-12.44,12.44s5.58,12.44,12.44,12.44,12.44-5.58,12.44-12.44-5.58-12.44-12.44-12.44Z"/>
      <path class="st0" d="M168.86,273.4h-45.01v-45.01h45.01v45.01ZM125.86,271.4h41.01v-41.01h-41.01v41.01Z"/>
    </g>
  </g>
  <g id="Layer_9" class="st4">
    <g>
      <path class="st0" d="M250.6,292.12c-23.06,0-41.82-18.76-41.82-41.82s18.76-41.82,41.82-41.82,41.82,18.76,41.82,41.82-18.76,41.82-41.82,41.82ZM250.6,211.48c-21.41,0-38.82,17.41-38.82,38.82s17.41,38.82,38.82,38.82,38.82-17.41,38.82-38.82-17.42-38.82-38.82-38.82Z"/>
      <path class="st0" d="M250.6,278.18c-15.37,0-27.88-12.51-27.88-27.88s12.51-27.88,27.88-27.88,27.88,12.51,27.88,27.88-12.51,27.88-27.88,27.88ZM250.6,224.42c-14.27,0-25.88,11.61-25.88,25.88s11.61,25.88,25.88,25.88,25.88-11.61,25.88-25.88-11.61-25.88-25.88-25.88Z"/>
      <path class="st0" d="M265.04,264.74h-28.88v-28.88h28.88v28.88ZM238.16,262.74h24.88v-24.88h-24.88v24.88Z"/>
    </g>
  </g>
</svg>