<?xml version="1.0" encoding="UTF-8"?>
<svg xmlns="http://www.w3.org/2000/svg" version="1.1" viewBox="0 0 84.24 84.24">
  <!-- Generator: Adobe Illustrator 29.1.0, SVG Export Plug-In . SVG Version: 2.1.0 Build 142)  -->
  <defs>
    <style>
      .st0 {
        fill: #be69a9;
      }

      .st1 {
        fill: #009449;
      }

      .st2 {
        stroke: #4889c8;
      }

      .st2, .st3 {
        fill: none;
        stroke-miterlimit: 10;
        stroke-width: 3px;
      }

      .st4 {
        display: none;
      }

      .st5 {
        fill: #4889c8;
      }

      .st3 {
        stroke: #498ac9;
      }

      .st6 {
        fill: #498ac9;
      }
    </style>
  </defs>

<circle cx="42.12" cy="42.12" r="41" fill="black" opacity="0.8"/>

  <g id="Layer_1" class="st4">

    <g>
      <path class="st6" d="M-166.36-20.3c-23.06,0-41.82-18.76-41.82-41.82s18.76-41.82,41.82-41.82,41.82,18.76,41.82,41.82-18.76,41.82-41.82,41.82ZM-166.36-100.94c-21.4,0-38.82,17.41-38.82,38.82s17.41,38.82,38.82,38.82,38.82-17.41,38.82-38.82-17.41-38.82-38.82-38.82Z"/>
      <rect class="st6" x="-186.51" y="-74.06" width="3" height="61.25" transform="translate(-23.56 -143.67) rotate(-45.05)"/>
      <ellipse class="st6" cx="-158.96" cy="-69.7" rx="17.72" ry="17.57"/>
      <path class="st3" d="M-186.67-41.23"/>
      <rect class="st6" x="-196.5" y="-39.45" width="13.07" height="3" transform="translate(-28.41 -144.85) rotate(-44.79)"/>
      <rect class="st6" x="-195.24" y="-67.97" width="67.56" height="3" transform="translate(-.35 -133.79) rotate(-45.05)"/>
    </g>
  </g>
  <g id="Layer_2" class="st4">
    <g>
      <path class="st6" d="M-61.7-20.3c-23.06,0-41.82-18.76-41.82-41.82s18.76-41.82,41.82-41.82,41.82,18.76,41.82,41.82S-38.64-20.3-61.7-20.3ZM-61.7-100.94c-21.41,0-38.82,17.42-38.82,38.82s17.42,38.82,38.82,38.82S-22.88-40.71-22.88-62.12s-17.42-38.82-38.82-38.82Z"/>
      <rect class="st6" x="-53.58" y="-109.72" width="3" height="75.93" transform="translate(35.5 -57.92) rotate(-45.05)"/>
      <rect class="st6" x="-102.32" y="-63.19" width="81.86" height="3" transform="translate(25.64 -61.82) rotate(-45.22)"/>
      <path class="st3" d="M-82.01-41.23"/>
      <rect class="st6" x="-64.73" y="-100.42" width="3" height="80.15" transform="translate(24.15 -62.45) rotate(-45.05)"/>
    </g>
  </g>
  <g id="Layer_3" class="st4">
    <g>
      <path class="st5" d="M42.12-20.3C19.06-20.3.3-39.06.3-62.12s18.76-41.82,41.82-41.82,41.82,18.76,41.82,41.82-18.76,41.82-41.82,41.82ZM42.12-100.94c-21.41,0-38.82,17.42-38.82,38.82S20.71-23.3,42.12-23.3s38.82-17.42,38.82-38.82-17.42-38.82-38.82-38.82Z"/>
      <rect class="st5" x="59.02" y="-111.3" width="3" height="61.25" transform="translate(74.85 19.15) rotate(-45.05)"/>
      <ellipse class="st5" cx="34.77" cy="-54.34" rx="17.72" ry="17.57"/>
      <path class="st2" d="M21.81-41.23"/>
      <rect class="st5" x="11.98" y="-39.45" width="13.07" height="3" transform="translate(32.11 2.02) rotate(-44.79)"/>
      <rect class="st5" x="41.2" y="-79.51" width="34.83" height="3" transform="translate(72.75 18.54) rotate(-45.25)"/>
    </g>
  </g>
  <g id="Layer_4" class="st4">
    <g>
      <path class="st1" d="M-166.36,83.87c-23.06,0-41.82-18.76-41.82-41.82S-189.42.22-166.36.22s41.82,18.76,41.82,41.82-18.76,41.82-41.82,41.82ZM-166.36,3.22c-21.41,0-38.82,17.42-38.82,38.82s17.41,38.82,38.82,38.82,38.82-17.42,38.82-38.82S-144.95,3.22-166.36,3.22Z"/>
      <path class="st1" d="M-166.36,25.87c-9.23,0-17.13-6.66-17.13-8.74s7.9-8.74,17.13-8.74,17.13,6.66,17.13,8.74-7.9,8.74-17.13,8.74ZM-181.44,17.13c.8,1.39,7.09,6.74,15.08,6.74s14.28-5.35,15.08-6.74c-.8-1.39-7.09-6.74-15.08-6.74s-14.28,5.35-15.08,6.74ZM-151.21,17.26h0ZM-181.51,17.26h0Z"/>
      <path class="st1" d="M-166.36,75.7c-9.23,0-17.13-6.66-17.13-8.74s7.9-8.74,17.13-8.74,17.13,6.66,17.13,8.74-7.9,8.74-17.13,8.74ZM-181.44,66.96c.8,1.39,7.09,6.74,15.08,6.74s14.28-5.35,15.08-6.74c-.8-1.39-7.09-6.74-15.08-6.74s-14.28,5.35-15.08,6.74ZM-151.21,66.82h0ZM-181.51,66.82"/>
      <path class="st1" d="M-190.23,59.17c-2.08,0-8.74-7.9-8.74-17.13s6.66-17.13,8.74-17.13,8.74,7.9,8.74,17.13-6.66,17.13-8.74,17.13ZM-190.23,26.96c-1.39.8-6.74,7.1-6.74,15.08s5.35,14.28,6.74,15.08c1.39-.8,6.74-7.09,6.74-15.08s-5.35-14.28-6.74-15.08Z"/>
      <path class="st1" d="M-142.63,59.17c-2.08,0-8.74-7.9-8.74-17.13s6.66-17.13,8.74-17.13,8.74,7.9,8.74,17.13-6.66,17.13-8.74,17.13ZM-142.63,26.96c-1.39.8-6.74,7.09-6.74,15.08s5.35,14.28,6.74,15.08c1.39-.8,6.74-7.09,6.74-15.08s-5.35-14.28-6.74-15.08Z"/>
      <path class="st1" d="M-166.43,51.62c-5.7,0-7.22-5.94-7.22-9.45,0-.42.08-10.2,7.22-10.2,6.04,0,7.36,7.36,7.36,10.2,0,2.63-1.32,9.45-7.36,9.45ZM-166.43,33.98c-5.16,0-5.22,8.11-5.22,8.2,0,.3.06,7.45,5.22,7.45s5.36-7.37,5.36-7.45c0-.08-.15-8.2-5.36-8.2Z"/>
    </g>
  </g>
  <g id="Layer_5" class="st4">
    <g>
      <path class="st1" d="M-62.12,83.94c-22.2,0-40.54-17.35-41.76-39.5-.65-11.84,3.8-23.45,12.22-31.86C-83.25,4.17-71.64-.29-59.8.36-37.65,1.58-20.3,19.92-20.3,42.12c0,15.15-5.28,24.37-9.8,27.67-1.89,1.38-3.81,1.87-5.41,1.36l-.24-.08-.2-.15c-.28-.21-.57-.43-.85-.64.07.13.12.25.17.37.61,1.52.3,3.3-.86,5.01-2.72,4-10.61,8.28-24.64,8.28ZM-62.07,3.3c-10.25,0-20.16,4.09-27.47,11.4-7.81,7.81-11.95,18.59-11.34,29.58,1.13,20.56,18.15,36.66,38.76,36.66,12.87,0,19.98-3.75,22.16-6.96.58-.86.78-1.65.56-2.22-.32-.81-2.77-3.07-5.14-5.25-6.17-5.68-15.49-14.25-18.71-23.97l-.25-.75.49-.72c.34-.45.9-.68,1.5-.65l.78.04.42.67c.09.15,9.18,14.59,25.92,27.21.64.09,1.56-.26,2.53-.97,4.26-3.11,8.57-12.13,8.57-25.25C-23.3,21.51-39.4,4.49-59.96,3.36c-.7-.04-1.41-.06-2.11-.06Z"/>
      <polygon class="st1" points="-67.69 35.87 -78.68 21.46 -66.17 34.57 -67.69 35.87 -67.69 35.87"/>
      <polygon class="st1" points="-84.65 40.15 -73.13 41.85 -73.59 43.79 -84.65 40.15 -84.65 40.15"/>
      <polygon class="st1" points="-82.23 54.58 -72.8 47.77 -71.75 49.48 -82.07 54.84 -82.23 54.58 -82.23 54.58"/>
      <polygon class="st1" points="-69.31 62.95 -67.61 51.44 -65.66 51.9 -69.31 62.95 -69.31 62.95"/>
      <path class="st1" d="M-40.69,42.02l-11.53-1.7.46-1.95s11.09,3.62,11.07,3.64h0Z"/>
      <polygon class="st1" points="-43.15 27.52 -52.54 34.4 -53.59 32.69 -43.24 27.38 -43.15 27.52 -43.15 27.52"/>
      <polygon class="st1" points="-56.04 19.22 -57.73 30.73 -59.68 30.27 -56.04 19.22 -56.04 19.22"/>
    </g>
  </g>
  <g id="Layer_6">
    <g>
      <path class="st1" d="M42.12,83.44C19.34,83.44.8,64.9.8,42.12S19.34.8,42.12.8s41.32,18.54,41.32,41.32-18.54,41.32-41.32,41.32ZM42.12,2.8C20.44,2.8,2.8,20.44,2.8,42.12s17.64,39.32,39.32,39.32,39.32-17.64,39.32-39.32S63.8,2.8,42.12,2.8Z"/>
      <circle class="st1" cx="46.68" cy="40.21" r="10.08"/>
    </g>
  </g>
  <g id="Layer_7" class="st4">
    <g>
      <path class="st0" d="M-166.36,188.18c-23.06,0-41.82-18.76-41.82-41.82s18.76-41.82,41.82-41.82,41.82,18.76,41.82,41.82-18.76,41.82-41.82,41.82ZM-166.36,107.54c-21.41,0-38.82,17.41-38.82,38.82s17.41,38.82,38.82,38.82,38.82-17.41,38.82-38.82-17.42-38.82-38.82-38.82Z"/>
      <path class="st0" d="M-166.36,164.73c-10.13,0-18.37-8.24-18.37-18.37s8.24-18.37,18.37-18.37,18.37,8.24,18.37,18.37-8.24,18.37-18.37,18.37ZM-166.36,129.99c-9.03,0-16.37,7.35-16.37,16.37s7.35,16.37,16.37,16.37,16.37-7.35,16.37-16.37-7.35-16.37-16.37-16.37Z"/>
      <path class="st0" d="M-166.36,174.24c-15.37,0-27.88-12.51-27.88-27.88s12.51-27.88,27.88-27.88,27.88,12.51,27.88,27.88-12.51,27.88-27.88,27.88ZM-166.36,120.48c-14.27,0-25.88,11.61-25.88,25.88s11.61,25.88,25.88,25.88,25.88-11.61,25.88-25.88-11.61-25.88-25.88-25.88Z"/>
    </g>
  </g>
  <g id="Layer_8" class="st4">
    <g>
      <path class="st0" d="M-62.12,188.48c-23.06,0-41.82-18.76-41.82-41.82s18.76-41.82,41.82-41.82,41.82,18.76,41.82,41.82-18.76,41.82-41.82,41.82ZM-62.12,107.84c-21.41,0-38.82,17.41-38.82,38.82s17.42,38.82,38.82,38.82,38.82-17.41,38.82-38.82-17.41-38.82-38.82-38.82Z"/>
      <path class="st0" d="M-62.12,161.1c-7.96,0-14.44-6.48-14.44-14.44s6.48-14.44,14.44-14.44,14.44,6.48,14.44,14.44-6.48,14.44-14.44,14.44ZM-62.12,134.22c-6.86,0-12.44,5.58-12.44,12.44s5.58,12.44,12.44,12.44,12.44-5.58,12.44-12.44-5.58-12.44-12.44-12.44Z"/>
      <path class="st0" d="M-39.62,169.16h-45.01v-45.01h45.01v45.01ZM-82.62,167.16h41.01v-41.01h-41.01v41.01Z"/>
    </g>
  </g>
  <g id="Layer_9" class="st4">
    <g>
      <path class="st0" d="M42.12,187.88C19.06,187.88.3,169.12.3,146.06s18.76-41.82,41.82-41.82,41.82,18.76,41.82,41.82-18.76,41.82-41.82,41.82ZM42.12,107.24c-21.41,0-38.82,17.41-38.82,38.82s17.41,38.82,38.82,38.82,38.82-17.41,38.82-38.82-17.42-38.82-38.82-38.82Z"/>
      <path class="st0" d="M42.12,173.94c-15.37,0-27.88-12.51-27.88-27.88s12.51-27.88,27.88-27.88,27.88,12.51,27.88,27.88-12.51,27.88-27.88,27.88ZM42.12,120.18c-14.27,0-25.88,11.61-25.88,25.88s11.61,25.88,25.88,25.88,25.88-11.61,25.88-25.88-11.61-25.88-25.88-25.88Z"/>
      <path class="st0" d="M56.56,160.5h-28.88v-28.88h28.88v28.88ZM29.68,158.5h24.88v-24.88h-24.88v24.88Z"/>
    </g>
  </g>
</svg>