<?xml version="1.0" encoding="UTF-8"?>
<svg xmlns="http://www.w3.org/2000/svg" version="1.1" viewBox="0 0 84.24 84.24">
  <!-- Generator: Adobe Illustrator 29.1.0, SVG Export Plug-In . SVG Version: 2.1.0 Build 142)  -->
  <defs>
    <style>
      .st0 {
        fill: #be69a9;
      }

      .st1 {
        fill: #009449;
      }

      .st2 {
        stroke: #4889c8;
      }

      .st2, .st3 {
        fill: none;
        stroke-miterlimit: 10;
        stroke-width: 3px;
      }

      .st4 {
        display: none;
      }

      .st5 {
        fill: #4889c8;
      }

      .st3 {
        stroke: #498ac9;
      }

      .st6 {
        fill: #498ac9;
      }
    </style>
  </defs>
  <g id="Layer_1" class="st4">
    <g>
      <path class="st6" d="M-62.12-124.54c-23.06,0-41.82-18.76-41.82-41.82s18.76-41.82,41.82-41.82,41.82,18.76,41.82,41.82-18.76,41.82-41.82,41.82ZM-62.12-205.18c-21.4,0-38.82,17.41-38.82,38.82s17.41,38.82,38.82,38.82,38.82-17.41,38.82-38.82-17.41-38.82-38.82-38.82Z"/>
      <rect class="st6" x="-82.27" y="-178.3" width="3" height="61.25" transform="translate(80.81 -100.5) rotate(-45.05)"/>
      <ellipse class="st6" cx="-54.72" cy="-173.94" rx="17.72" ry="17.57"/>
      <path class="st3" d="M-82.43-145.47"/>
      <rect class="st6" x="-92.26" y="-143.69" width="13.07" height="3" transform="translate(75.29 -101.67) rotate(-44.79)"/>
      <rect class="st6" x="-91" y="-172.21" width="67.56" height="3" transform="translate(104.02 -90.61) rotate(-45.05)"/>
    </g>
  </g>
  <g id="Layer_2" class="st4">
    <g>
      <path class="st6" d="M42.54-124.54c-23.06,0-41.82-18.76-41.82-41.82s18.76-41.82,41.82-41.82,41.82,18.76,41.82,41.82-18.76,41.82-41.82,41.82ZM42.54-205.18c-21.41,0-38.82,17.42-38.82,38.82s17.42,38.82,38.82,38.82,38.82-17.42,38.82-38.82-17.42-38.82-38.82-38.82Z"/>
      <rect class="st6" x="50.66" y="-213.96" width="3" height="75.93" transform="translate(139.86 -14.74) rotate(-45.05)"/>
      <rect class="st6" x="1.92" y="-167.43" width="81.86" height="3" transform="translate(130.46 -18.65) rotate(-45.22)"/>
      <path class="st3" d="M22.23-145.47"/>
      <rect class="st6" x="39.51" y="-204.66" width="3" height="80.15" transform="translate(128.51 -19.28) rotate(-45.05)"/>
    </g>
  </g>
  <g id="Layer_3" class="st4">
    <g>
      <path class="st5" d="M146.36-124.54c-23.06,0-41.82-18.76-41.82-41.82s18.76-41.82,41.82-41.82,41.82,18.76,41.82,41.82-18.76,41.82-41.82,41.82ZM146.36-205.18c-21.41,0-38.82,17.42-38.82,38.82s17.41,38.82,38.82,38.82,38.82-17.42,38.82-38.82-17.42-38.82-38.82-38.82Z"/>
      <rect class="st5" x="163.26" y="-215.54" width="3" height="61.25" transform="translate(179.22 62.33) rotate(-45.05)"/>
      <ellipse class="st5" cx="139.01" cy="-158.58" rx="17.72" ry="17.57"/>
      <path class="st2" d="M126.05-145.47"/>
      <rect class="st5" x="116.22" y="-143.69" width="13.07" height="3" transform="translate(135.81 45.2) rotate(-44.79)"/>
      <rect class="st5" x="145.44" y="-183.75" width="34.83" height="3" transform="translate(177.64 61.71) rotate(-45.25)"/>
    </g>
  </g>
  <g id="Layer_4" class="st4">
    <g>
      <path class="st1" d="M-62.12-20.37c-23.06,0-41.82-18.76-41.82-41.82s18.76-41.82,41.82-41.82,41.82,18.76,41.82,41.82S-39.06-20.37-62.12-20.37ZM-62.12-101.02c-21.41,0-38.82,17.42-38.82,38.82s17.41,38.82,38.82,38.82S-23.3-40.79-23.3-62.2s-17.41-38.82-38.82-38.82Z"/>
      <path class="st1" d="M-62.12-78.37c-9.23,0-17.13-6.66-17.13-8.74s7.9-8.74,17.13-8.74,17.13,6.66,17.13,8.74-7.9,8.74-17.13,8.74ZM-77.2-87.11c.8,1.39,7.09,6.74,15.08,6.74s14.28-5.35,15.08-6.74c-.8-1.39-7.09-6.74-15.08-6.74s-14.28,5.35-15.08,6.74ZM-46.97-86.98h0ZM-77.27-86.98h0Z"/>
      <path class="st1" d="M-62.12-28.54c-9.23,0-17.13-6.66-17.13-8.74s7.9-8.74,17.13-8.74,17.13,6.66,17.13,8.74-7.9,8.74-17.13,8.74ZM-77.2-37.28c.8,1.39,7.09,6.74,15.08,6.74s14.28-5.35,15.08-6.74c-.8-1.39-7.09-6.74-15.08-6.74s-14.28,5.35-15.08,6.74ZM-46.97-37.42h0ZM-77.27-37.42"/>
      <path class="st1" d="M-85.99-45.07c-2.08,0-8.74-7.9-8.74-17.13s6.66-17.13,8.74-17.13,8.74,7.9,8.74,17.13-6.66,17.13-8.74,17.13ZM-85.99-77.28c-1.39.8-6.74,7.1-6.74,15.08s5.35,14.28,6.74,15.08c1.39-.8,6.74-7.09,6.74-15.08s-5.35-14.28-6.74-15.08Z"/>
      <path class="st1" d="M-38.39-45.07c-2.08,0-8.74-7.9-8.74-17.13s6.66-17.13,8.74-17.13,8.74,7.9,8.74,17.13-6.66,17.13-8.74,17.13ZM-38.39-77.28c-1.39.8-6.74,7.09-6.74,15.08s5.35,14.28,6.74,15.08c1.39-.8,6.74-7.09,6.74-15.08s-5.35-14.28-6.74-15.08Z"/>
      <path class="st1" d="M-62.19-52.62c-5.7,0-7.22-5.94-7.22-9.45,0-.42.08-10.2,7.22-10.2,6.04,0,7.36,7.36,7.36,10.2,0,2.63-1.32,9.45-7.36,9.45ZM-62.19-70.26c-5.16,0-5.22,8.11-5.22,8.2,0,.3.06,7.45,5.22,7.45s5.36-7.37,5.36-7.45c0-.08-.15-8.2-5.36-8.2Z"/>
    </g>
  </g>
  <g id="Layer_5" class="st4">
    <g>
      <path class="st1" d="M42.12-20.3C19.92-20.3,1.58-37.65.36-59.8c-.65-11.84,3.8-23.45,12.22-31.86,8.41-8.41,20.02-12.87,31.86-12.22,22.15,1.21,39.5,19.56,39.5,41.76,0,15.15-5.28,24.37-9.8,27.67-1.89,1.38-3.81,1.87-5.41,1.36l-.24-.08-.2-.15c-.28-.21-.57-.43-.85-.64.07.13.12.25.17.37.61,1.52.3,3.3-.86,5.01-2.72,4-10.61,8.28-24.64,8.28ZM42.17-100.94c-10.25,0-20.16,4.09-27.47,11.4-7.81,7.81-11.95,18.59-11.34,29.58,1.13,20.56,18.15,36.66,38.76,36.66,12.87,0,19.98-3.75,22.16-6.96.58-.86.78-1.65.56-2.22-.32-.81-2.77-3.07-5.14-5.25-6.17-5.68-15.49-14.25-18.71-23.97l-.25-.75.49-.72c.34-.45.9-.68,1.5-.65l.78.04.42.67c.09.15,9.18,14.59,25.92,27.21.64.09,1.56-.26,2.53-.97,4.26-3.11,8.57-12.13,8.57-25.25,0-20.61-16.1-37.63-36.66-38.76-.7-.04-1.41-.06-2.11-.06Z"/>
      <polygon class="st1" points="36.55 -68.37 25.56 -82.78 38.07 -69.67 36.55 -68.37 36.55 -68.37"/>
      <polygon class="st1" points="19.59 -64.09 31.11 -62.39 30.65 -60.45 19.59 -64.09 19.59 -64.09"/>
      <polygon class="st1" points="22.01 -49.66 31.44 -56.47 32.49 -54.76 22.17 -49.4 22.01 -49.66 22.01 -49.66"/>
      <polygon class="st1" points="34.93 -41.29 36.63 -52.8 38.58 -52.34 34.93 -41.29 34.93 -41.29"/>
      <path class="st1" d="M63.55-62.22l-11.53-1.7.46-1.95s11.09,3.62,11.07,3.64h0Z"/>
      <polygon class="st1" points="61.09 -76.72 51.7 -69.84 50.65 -71.55 61 -76.86 61.09 -76.72 61.09 -76.72"/>
      <polygon class="st1" points="48.2 -85.02 46.51 -73.51 44.56 -73.97 48.2 -85.02 48.2 -85.02"/>
    </g>
  </g>
  <g id="Layer_6" class="st4">
    <g>
      <path class="st1" d="M146.36-20.8c-22.78,0-41.32-18.54-41.32-41.32s18.54-41.32,41.32-41.32,41.32,18.54,41.32,41.32-18.54,41.32-41.32,41.32ZM146.36-101.44c-21.68,0-39.32,17.64-39.32,39.32s17.64,39.32,39.32,39.32,39.32-17.64,39.32-39.32-17.64-39.32-39.32-39.32Z"/>
      <circle class="st1" cx="150.92" cy="-64.03" r="10.08"/>
    </g>
  </g>
  <g id="Layer_7" class="st4">
    <g>
      <path class="st0" d="M-62.12,83.94c-23.06,0-41.82-18.76-41.82-41.82S-85.18.3-62.12.3-20.3,19.06-20.3,42.12s-18.76,41.82-41.82,41.82ZM-62.12,3.3c-21.41,0-38.82,17.41-38.82,38.82s17.41,38.82,38.82,38.82S-23.3,63.53-23.3,42.12-40.72,3.3-62.12,3.3Z"/>
      <path class="st0" d="M-62.12,60.49c-10.13,0-18.37-8.24-18.37-18.37s8.24-18.37,18.37-18.37,18.37,8.24,18.37,18.37-8.24,18.37-18.37,18.37ZM-62.12,25.75c-9.03,0-16.37,7.35-16.37,16.37s7.35,16.37,16.37,16.37,16.37-7.35,16.37-16.37-7.35-16.37-16.37-16.37Z"/>
      <path class="st0" d="M-62.12,70c-15.37,0-27.88-12.51-27.88-27.88s12.51-27.88,27.88-27.88,27.88,12.51,27.88,27.88-12.51,27.88-27.88,27.88ZM-62.12,16.24c-14.27,0-25.88,11.61-25.88,25.88s11.61,25.88,25.88,25.88,25.88-11.61,25.88-25.88-11.61-25.88-25.88-25.88Z"/>
    </g>
  </g>
  <g id="Layer_8">
    <g>
      <path class="st0" d="M42.12,84.24C19.06,84.24.3,65.48.3,42.42S19.06.6,42.12.6s41.82,18.76,41.82,41.82-18.76,41.82-41.82,41.82ZM42.12,3.6C20.72,3.6,3.3,21.01,3.3,42.42s17.42,38.82,38.82,38.82,38.82-17.41,38.82-38.82S63.53,3.6,42.12,3.6Z"/>
      <path class="st0" d="M42.12,56.86c-7.96,0-14.44-6.48-14.44-14.44s6.48-14.44,14.44-14.44,14.44,6.48,14.44,14.44-6.48,14.44-14.44,14.44ZM42.12,29.98c-6.86,0-12.44,5.58-12.44,12.44s5.58,12.44,12.44,12.44,12.44-5.58,12.44-12.44-5.58-12.44-12.44-12.44Z"/>
      <path class="st0" d="M64.62,64.92H19.62V19.92h45.01v45.01ZM21.62,62.92h41.01V21.92H21.62v41.01Z"/>
    </g>
  </g>
  <g id="Layer_9" class="st4">
    <g>
      <path class="st0" d="M146.36,83.64c-23.06,0-41.82-18.76-41.82-41.82S123.3,0,146.36,0s41.82,18.76,41.82,41.82-18.76,41.82-41.82,41.82ZM146.36,3c-21.41,0-38.82,17.41-38.82,38.82s17.41,38.82,38.82,38.82,38.82-17.41,38.82-38.82S167.76,3,146.36,3Z"/>
      <path class="st0" d="M146.36,69.7c-15.37,0-27.88-12.51-27.88-27.88s12.51-27.88,27.88-27.88,27.88,12.51,27.88,27.88-12.51,27.88-27.88,27.88ZM146.36,15.94c-14.27,0-25.88,11.61-25.88,25.88s11.61,25.88,25.88,25.88,25.88-11.61,25.88-25.88-11.61-25.88-25.88-25.88Z"/>
      <path class="st0" d="M160.8,56.26h-28.88v-28.88h28.88v28.88ZM133.92,54.26h24.88v-24.88h-24.88v24.88Z"/>
    </g>
  </g>
</svg>