<?xml version="1.0" encoding="UTF-8"?>
<svg xmlns="http://www.w3.org/2000/svg" version="1.1" viewBox="0 0 84.24 84.24">
  <!-- Generator: Adobe Illustrator 29.1.0, SVG Export Plug-In . SVG Version: 2.1.0 Build 142)  -->
  <defs>
    <style>
      .st0 {
        fill: #be69a9;
      }

      .st1 {
        fill: #009449;
      }

      .st2 {
        stroke: #4889c8;
      }

      .st2, .st3 {
        fill: none;
        stroke-miterlimit: 10;
        stroke-width: 3px;
      }

      .st4 {
        display: none;
      }

      .st5 {
        fill: #4889c8;
      }

      .st3 {
        stroke: #498ac9;
      }

      .st6 {
        fill: #498ac9;
      }
    </style>
  </defs>
  <g id="Layer_1" class="st4">
    <g>
      <path class="st6" d="M42.12-124.54C19.06-124.54.3-143.3.3-166.36s18.76-41.82,41.82-41.82,41.82,18.76,41.82,41.82-18.76,41.82-41.82,41.82ZM42.12-205.18c-21.4,0-38.82,17.41-38.82,38.82s17.41,38.82,38.82,38.82,38.82-17.41,38.82-38.82-17.41-38.82-38.82-38.82Z"/>
      <rect class="st6" x="21.97" y="-178.3" width="3" height="61.25" transform="translate(111.4 -26.73) rotate(-45.05)"/>
      <ellipse class="st6" cx="49.52" cy="-173.94" rx="17.72" ry="17.57"/>
      <path class="st3" d="M21.81-145.47"/>
      <rect class="st6" x="11.98" y="-143.69" width="13.07" height="3" transform="translate(105.55 -28.24) rotate(-44.79)"/>
      <rect class="st6" x="13.24" y="-172.21" width="67.56" height="3" transform="translate(134.62 -16.83) rotate(-45.05)"/>
    </g>
  </g>
  <g id="Layer_2" class="st4">
    <g>
      <path class="st6" d="M146.78-124.54c-23.06,0-41.82-18.76-41.82-41.82s18.76-41.82,41.82-41.82,41.82,18.76,41.82,41.82-18.76,41.82-41.82,41.82ZM146.78-205.18c-21.41,0-38.82,17.42-38.82,38.82s17.42,38.82,38.82,38.82,38.82-17.42,38.82-38.82-17.42-38.82-38.82-38.82Z"/>
      <rect class="st6" x="154.9" y="-213.96" width="3" height="75.93" transform="translate(170.45 59.03) rotate(-45.05)"/>
      <rect class="st6" x="106.16" y="-167.43" width="81.86" height="3" transform="translate(161.28 55.35) rotate(-45.22)"/>
      <path class="st3" d="M126.47-145.47"/>
      <rect class="st6" x="143.75" y="-204.66" width="3" height="80.15" transform="translate(159.1 54.49) rotate(-45.05)"/>
    </g>
  </g>
  <g id="Layer_3" class="st4">
    <g>
      <path class="st5" d="M250.6-124.54c-23.06,0-41.82-18.76-41.82-41.82s18.76-41.82,41.82-41.82,41.82,18.76,41.82,41.82-18.76,41.82-41.82,41.82ZM250.6-205.18c-21.41,0-38.82,17.42-38.82,38.82s17.41,38.82,38.82,38.82,38.82-17.42,38.82-38.82-17.42-38.82-38.82-38.82Z"/>
      <rect class="st5" x="267.5" y="-215.54" width="3" height="61.25" transform="translate(209.81 136.1) rotate(-45.05)"/>
      <ellipse class="st5" cx="243.25" cy="-158.58" rx="17.72" ry="17.57"/>
      <path class="st2" d="M230.29-145.47"/>
      <rect class="st5" x="220.46" y="-143.69" width="13.07" height="3" transform="translate(166.07 118.64) rotate(-44.79)"/>
      <rect class="st5" x="249.68" y="-183.75" width="34.83" height="3" transform="translate(208.49 135.74) rotate(-45.25)"/>
    </g>
  </g>
  <g id="Layer_4" class="st4">
    <g>
      <path class="st1" d="M42.12-20.37C19.06-20.37.3-39.14.3-62.2s18.76-41.82,41.82-41.82,41.82,18.76,41.82,41.82-18.76,41.82-41.82,41.82ZM42.12-101.02c-21.41,0-38.82,17.42-38.82,38.82S20.71-23.37,42.12-23.37s38.82-17.42,38.82-38.82-17.41-38.82-38.82-38.82Z"/>
      <path class="st1" d="M42.12-78.37c-9.23,0-17.13-6.66-17.13-8.74s7.9-8.74,17.13-8.74,17.13,6.66,17.13,8.74-7.9,8.74-17.13,8.74ZM27.04-87.11c.8,1.39,7.09,6.74,15.08,6.74s14.28-5.35,15.08-6.74c-.8-1.39-7.09-6.74-15.08-6.74s-14.28,5.35-15.08,6.74ZM57.27-86.98h0ZM26.97-86.98h0Z"/>
      <path class="st1" d="M42.12-28.54c-9.23,0-17.13-6.66-17.13-8.74s7.9-8.74,17.13-8.74,17.13,6.66,17.13,8.74-7.9,8.74-17.13,8.74ZM27.04-37.28c.8,1.39,7.09,6.74,15.08,6.74s14.28-5.35,15.08-6.74c-.8-1.39-7.09-6.74-15.08-6.74s-14.28,5.35-15.08,6.74ZM57.27-37.42h0ZM26.97-37.42"/>
      <path class="st1" d="M18.25-45.07c-2.08,0-8.74-7.9-8.74-17.13s6.66-17.13,8.74-17.13,8.74,7.9,8.74,17.13-6.66,17.13-8.74,17.13ZM18.25-77.28c-1.39.8-6.74,7.1-6.74,15.08s5.35,14.28,6.74,15.08c1.39-.8,6.74-7.09,6.74-15.08s-5.35-14.28-6.74-15.08Z"/>
      <path class="st1" d="M65.85-45.07c-2.08,0-8.74-7.9-8.74-17.13s6.66-17.13,8.74-17.13,8.74,7.9,8.74,17.13-6.66,17.13-8.74,17.13ZM65.85-77.28c-1.39.8-6.74,7.09-6.74,15.08s5.35,14.28,6.74,15.08c1.39-.8,6.74-7.09,6.74-15.08s-5.35-14.28-6.74-15.08Z"/>
      <path class="st1" d="M42.05-52.62c-5.7,0-7.22-5.94-7.22-9.45,0-.42.08-10.2,7.22-10.2,6.04,0,7.36,7.36,7.36,10.2,0,2.63-1.32,9.45-7.36,9.45ZM42.05-70.26c-5.16,0-5.22,8.11-5.22,8.2,0,.3.06,7.45,5.22,7.45s5.36-7.37,5.36-7.45c0-.08-.15-8.2-5.36-8.2Z"/>
    </g>
  </g>
  <g id="Layer_5" class="st4">
    <g>
      <path class="st1" d="M146.36-20.3c-22.2,0-40.54-17.35-41.76-39.5-.65-11.84,3.8-23.45,12.22-31.86,8.41-8.41,20.02-12.87,31.86-12.22,22.15,1.21,39.5,19.56,39.5,41.76,0,15.15-5.28,24.37-9.8,27.67-1.89,1.38-3.81,1.87-5.41,1.36l-.24-.08-.2-.15c-.28-.21-.57-.43-.85-.64.07.13.12.25.17.37.61,1.52.3,3.3-.86,5.01-2.72,4-10.61,8.28-24.64,8.28ZM146.41-100.94c-10.25,0-20.16,4.09-27.47,11.4-7.81,7.81-11.95,18.59-11.34,29.58,1.13,20.56,18.15,36.66,38.76,36.66,12.87,0,19.98-3.75,22.16-6.96.58-.86.78-1.65.56-2.22-.32-.81-2.77-3.07-5.14-5.25-6.17-5.68-15.49-14.25-18.71-23.97l-.25-.75.49-.72c.34-.45.9-.68,1.5-.65l.78.04.42.67c.09.15,9.18,14.59,25.92,27.21.64.09,1.56-.26,2.53-.97,4.26-3.11,8.57-12.13,8.57-25.25,0-20.61-16.1-37.63-36.66-38.76-.7-.04-1.41-.06-2.11-.06Z"/>
      <polygon class="st1" points="140.79 -68.37 129.8 -82.78 142.31 -69.67 140.79 -68.37 140.79 -68.37"/>
      <polygon class="st1" points="123.83 -64.09 135.35 -62.39 134.89 -60.45 123.83 -64.09 123.83 -64.09"/>
      <polygon class="st1" points="126.25 -49.66 135.68 -56.47 136.73 -54.76 126.41 -49.4 126.25 -49.66 126.25 -49.66"/>
      <polygon class="st1" points="139.17 -41.29 140.87 -52.8 142.82 -52.34 139.17 -41.29 139.17 -41.29"/>
      <path class="st1" d="M167.79-62.22l-11.53-1.7.46-1.95s11.09,3.62,11.07,3.64h0Z"/>
      <polygon class="st1" points="165.33 -76.72 155.94 -69.84 154.89 -71.55 165.24 -76.86 165.33 -76.72 165.33 -76.72"/>
      <polygon class="st1" points="152.44 -85.02 150.75 -73.51 148.8 -73.97 152.44 -85.02 152.44 -85.02"/>
    </g>
  </g>
  <g id="Layer_6" class="st4">
    <g>
      <path class="st1" d="M250.6-20.8c-22.78,0-41.32-18.54-41.32-41.32s18.54-41.32,41.32-41.32,41.32,18.54,41.32,41.32-18.54,41.32-41.32,41.32ZM250.6-101.44c-21.68,0-39.32,17.64-39.32,39.32s17.64,39.32,39.32,39.32,39.32-17.64,39.32-39.32-17.64-39.32-39.32-39.32Z"/>
      <circle class="st1" cx="255.16" cy="-64.03" r="10.08"/>
    </g>
  </g>
  <g id="Layer_7">
    <g>
      <path class="st0" d="M42.12,83.94C19.06,83.94.3,65.18.3,42.12S19.06.3,42.12.3s41.82,18.76,41.82,41.82-18.76,41.82-41.82,41.82ZM42.12,3.3C20.71,3.3,3.3,20.71,3.3,42.12s17.41,38.82,38.82,38.82,38.82-17.41,38.82-38.82S63.52,3.3,42.12,3.3Z"/>
      <path class="st0" d="M42.12,60.49c-10.13,0-18.37-8.24-18.37-18.37s8.24-18.37,18.37-18.37,18.37,8.24,18.37,18.37-8.24,18.37-18.37,18.37ZM42.12,25.75c-9.03,0-16.37,7.35-16.37,16.37s7.35,16.37,16.37,16.37,16.37-7.35,16.37-16.37-7.35-16.37-16.37-16.37Z"/>
      <path class="st0" d="M42.12,70c-15.37,0-27.88-12.51-27.88-27.88s12.51-27.88,27.88-27.88,27.88,12.51,27.88,27.88-12.51,27.88-27.88,27.88ZM42.12,16.24c-14.27,0-25.88,11.61-25.88,25.88s11.61,25.88,25.88,25.88,25.88-11.61,25.88-25.88-11.61-25.88-25.88-25.88Z"/>
    </g>
  </g>
  <g id="Layer_8" class="st4">
    <g>
      <path class="st0" d="M146.36,84.24c-23.06,0-41.82-18.76-41.82-41.82S123.3.6,146.36.6s41.82,18.76,41.82,41.82-18.76,41.82-41.82,41.82ZM146.36,3.6c-21.41,0-38.82,17.41-38.82,38.82s17.42,38.82,38.82,38.82,38.82-17.41,38.82-38.82S167.77,3.6,146.36,3.6Z"/>
      <path class="st0" d="M146.36,56.86c-7.96,0-14.44-6.48-14.44-14.44s6.48-14.44,14.44-14.44,14.44,6.48,14.44,14.44-6.48,14.44-14.44,14.44ZM146.36,29.98c-6.86,0-12.44,5.58-12.44,12.44s5.58,12.44,12.44,12.44,12.44-5.58,12.44-12.44-5.58-12.44-12.44-12.44Z"/>
      <path class="st0" d="M168.86,64.92h-45.01V19.92h45.01v45.01ZM125.86,62.92h41.01V21.92h-41.01v41.01Z"/>
    </g>
  </g>
  <g id="Layer_9" class="st4">
    <g>
      <path class="st0" d="M250.6,83.64c-23.06,0-41.82-18.76-41.82-41.82S227.54,0,250.6,0s41.82,18.76,41.82,41.82-18.76,41.82-41.82,41.82ZM250.6,3c-21.41,0-38.82,17.41-38.82,38.82s17.41,38.82,38.82,38.82,38.82-17.41,38.82-38.82S272,3,250.6,3Z"/>
      <path class="st0" d="M250.6,69.7c-15.37,0-27.88-12.51-27.88-27.88s12.51-27.88,27.88-27.88,27.88,12.51,27.88,27.88-12.51,27.88-27.88,27.88ZM250.6,15.94c-14.27,0-25.88,11.61-25.88,25.88s11.61,25.88,25.88,25.88,25.88-11.61,25.88-25.88-11.61-25.88-25.88-25.88Z"/>
      <path class="st0" d="M265.04,56.26h-28.88v-28.88h28.88v28.88ZM238.16,54.26h24.88v-24.88h-24.88v24.88Z"/>
    </g>
  </g>
</svg>