<?xml version="1.0" encoding="UTF-8"?>
<svg xmlns="http://www.w3.org/2000/svg" version="1.1" viewBox="0 0 84.24 84.24">
  <!-- Generator: Adobe Illustrator 29.1.0, SVG Export Plug-In . SVG Version: 2.1.0 Build 142)  -->
  <defs>
    <style>
      .st0 {
        fill: #be69a9;
      }

      .st1 {
        fill: #009449;
      }

      .st2 {
        stroke: #4889c8;
      }

      .st2, .st3 {
        fill: none;
        stroke-miterlimit: 10;
        stroke-width: 3px;
      }

      .st4 {
        display: none;
      }

      .st5 {
        fill: #4889c8;
      }

      .st3 {
        stroke: #498ac9;
      }

      .st6 {
        fill: #498ac9;
      }
    </style>
  </defs>
  <g id="Layer_1" class="st4">
    <g>
      <path class="st6" d="M-166.36,83.94c-23.06,0-41.82-18.76-41.82-41.82S-189.42.3-166.36.3s41.82,18.76,41.82,41.82-18.76,41.82-41.82,41.82ZM-166.36,3.3c-21.4,0-38.82,17.41-38.82,38.82s17.41,38.82,38.82,38.82,38.82-17.41,38.82-38.82S-144.96,3.3-166.36,3.3Z"/>
      <rect class="st6" x="-186.51" y="30.18" width="3" height="61.25" transform="translate(-97.33 -113.08) rotate(-45.05)"/>
      <ellipse class="st6" cx="-158.96" cy="34.54" rx="17.72" ry="17.57"/>
      <path class="st3" d="M-186.67,63.01"/>
      <rect class="st6" x="-196.5" y="64.79" width="13.07" height="3" transform="translate(-101.84 -114.59) rotate(-44.79)"/>
      <rect class="st6" x="-195.24" y="36.27" width="67.56" height="3" transform="translate(-74.13 -103.19) rotate(-45.05)"/>
    </g>
  </g>
  <g id="Layer_2" class="st4">
    <g>
      <path class="st6" d="M-61.7,83.94c-23.06,0-41.82-18.76-41.82-41.82S-84.76.3-61.7.3-19.88,19.06-19.88,42.12s-18.76,41.82-41.82,41.82ZM-61.7,3.3c-21.41,0-38.82,17.42-38.82,38.82s17.42,38.82,38.82,38.82S-22.88,63.53-22.88,42.12-40.3,3.3-61.7,3.3Z"/>
      <rect class="st6" x="-53.58" y="-5.48" width="3" height="75.93" transform="translate(-38.28 -27.33) rotate(-45.05)"/>
      <rect class="st6" x="-102.32" y="41.05" width="81.86" height="3" transform="translate(-48.35 -31) rotate(-45.22)"/>
      <path class="st3" d="M-82.01,63.01"/>
      <rect class="st6" x="-64.73" y="3.82" width="3" height="80.15" transform="translate(-49.62 -31.86) rotate(-45.05)"/>
    </g>
  </g>
  <g id="Layer_3">
    <g>
      <path class="st5" d="M42.12,83.94C19.06,83.94.3,65.18.3,42.12S19.06.3,42.12.3s41.82,18.76,41.82,41.82-18.76,41.82-41.82,41.82ZM42.12,3.3C20.71,3.3,3.3,20.71,3.3,42.12s17.41,38.82,38.82,38.82,38.82-17.42,38.82-38.82S63.52,3.3,42.12,3.3Z"/>
      <rect class="st5" x="59.02" y="-7.06" width="3" height="61.25" transform="translate(1.08 49.75) rotate(-45.05)"/>
      <ellipse class="st5" cx="34.77" cy="49.9" rx="17.72" ry="17.57"/>
      <path class="st2" d="M21.81,63.01"/>
      <rect class="st5" x="11.98" y="64.79" width="13.07" height="3" transform="translate(-41.32 32.28) rotate(-44.79)"/>
      <rect class="st5" x="41.2" y="24.73" width="34.83" height="3" transform="translate(-1.28 49.39) rotate(-45.25)"/>
    </g>
  </g>
  <g id="Layer_4" class="st4">
    <g>
      <path class="st1" d="M-166.36,188.11c-23.06,0-41.82-18.76-41.82-41.82s18.76-41.82,41.82-41.82,41.82,18.76,41.82,41.82-18.76,41.82-41.82,41.82ZM-166.36,107.46c-21.41,0-38.82,17.42-38.82,38.82s17.41,38.82,38.82,38.82,38.82-17.42,38.82-38.82-17.41-38.82-38.82-38.82Z"/>
      <path class="st1" d="M-166.36,130.11c-9.23,0-17.13-6.66-17.13-8.74s7.9-8.74,17.13-8.74,17.13,6.66,17.13,8.74-7.9,8.74-17.13,8.74ZM-181.44,121.37c.8,1.39,7.09,6.74,15.08,6.74s14.28-5.35,15.08-6.74c-.8-1.39-7.09-6.74-15.08-6.74s-14.28,5.35-15.08,6.74ZM-151.21,121.5h0ZM-181.51,121.5h0Z"/>
      <path class="st1" d="M-166.36,179.94c-9.23,0-17.13-6.66-17.13-8.74s7.9-8.74,17.13-8.74,17.13,6.66,17.13,8.74-7.9,8.74-17.13,8.74ZM-181.44,171.2c.8,1.39,7.09,6.74,15.08,6.74s14.28-5.35,15.08-6.74c-.8-1.39-7.09-6.74-15.08-6.74s-14.28,5.35-15.08,6.74ZM-151.21,171.06h0ZM-181.51,171.06"/>
      <path class="st1" d="M-190.23,163.41c-2.08,0-8.74-7.9-8.74-17.13s6.66-17.13,8.74-17.13,8.74,7.9,8.74,17.13-6.66,17.13-8.74,17.13ZM-190.23,131.2c-1.39.8-6.74,7.1-6.74,15.08s5.35,14.28,6.74,15.08c1.39-.8,6.74-7.09,6.74-15.08s-5.35-14.28-6.74-15.08Z"/>
      <path class="st1" d="M-142.63,163.41c-2.08,0-8.74-7.9-8.74-17.13s6.66-17.13,8.74-17.13,8.74,7.9,8.74,17.13-6.66,17.13-8.74,17.13ZM-142.63,131.2c-1.39.8-6.74,7.09-6.74,15.08s5.35,14.28,6.74,15.08c1.39-.8,6.74-7.09,6.74-15.08s-5.35-14.28-6.74-15.08Z"/>
      <path class="st1" d="M-166.43,155.86c-5.7,0-7.22-5.94-7.22-9.45,0-.42.08-10.2,7.22-10.2,6.04,0,7.36,7.36,7.36,10.2,0,2.63-1.32,9.45-7.36,9.45ZM-166.43,138.22c-5.16,0-5.22,8.11-5.22,8.2,0,.3.06,7.45,5.22,7.45s5.36-7.37,5.36-7.45c0-.08-.15-8.2-5.36-8.2Z"/>
    </g>
  </g>
  <g id="Layer_5" class="st4">
    <g>
      <path class="st1" d="M-62.12,188.18c-22.2,0-40.54-17.35-41.76-39.5-.65-11.84,3.8-23.45,12.22-31.86,8.41-8.41,20.02-12.87,31.86-12.22,22.15,1.21,39.5,19.56,39.5,41.76,0,15.15-5.28,24.37-9.8,27.67-1.89,1.38-3.81,1.87-5.41,1.36l-.24-.08-.2-.15c-.28-.21-.57-.43-.85-.64.07.13.12.25.17.37.61,1.52.3,3.3-.86,5.01-2.72,4-10.61,8.28-24.64,8.28ZM-62.07,107.54c-10.25,0-20.16,4.09-27.47,11.4-7.81,7.81-11.95,18.59-11.34,29.58,1.13,20.56,18.15,36.66,38.76,36.66,12.87,0,19.98-3.75,22.16-6.96.58-.86.78-1.65.56-2.22-.32-.81-2.77-3.07-5.14-5.25-6.17-5.68-15.49-14.25-18.71-23.97l-.25-.75.49-.72c.34-.45.9-.68,1.5-.65l.78.04.42.67c.09.15,9.18,14.59,25.92,27.21.64.09,1.56-.26,2.53-.97,4.26-3.11,8.57-12.13,8.57-25.25,0-20.61-16.1-37.63-36.66-38.76-.7-.04-1.41-.06-2.11-.06Z"/>
      <polygon class="st1" points="-67.69 140.11 -78.68 125.7 -66.17 138.81 -67.69 140.11 -67.69 140.11"/>
      <polygon class="st1" points="-84.65 144.39 -73.13 146.09 -73.59 148.03 -84.65 144.39 -84.65 144.39"/>
      <polygon class="st1" points="-82.23 158.82 -72.8 152.01 -71.75 153.72 -82.07 159.08 -82.23 158.82 -82.23 158.82"/>
      <polygon class="st1" points="-69.31 167.19 -67.61 155.68 -65.66 156.14 -69.31 167.19 -69.31 167.19"/>
      <path class="st1" d="M-40.69,146.26l-11.53-1.7.46-1.95s11.09,3.62,11.07,3.64h0Z"/>
      <polygon class="st1" points="-43.15 131.76 -52.54 138.64 -53.59 136.93 -43.24 131.62 -43.15 131.76 -43.15 131.76"/>
      <polygon class="st1" points="-56.04 123.46 -57.73 134.97 -59.68 134.51 -56.04 123.46 -56.04 123.46"/>
    </g>
  </g>
  <g id="Layer_6" class="st4">
    <g>
      <path class="st1" d="M42.12,187.68c-22.78,0-41.32-18.54-41.32-41.32s18.54-41.32,41.32-41.32,41.32,18.54,41.32,41.32-18.54,41.32-41.32,41.32ZM42.12,107.04c-21.68,0-39.32,17.64-39.32,39.32s17.64,39.32,39.32,39.32,39.32-17.64,39.32-39.32-17.64-39.32-39.32-39.32Z"/>
      <circle class="st1" cx="46.68" cy="144.45" r="10.08"/>
    </g>
  </g>
  <g id="Layer_7" class="st4">
    <g>
      <path class="st0" d="M-166.36,292.42c-23.06,0-41.82-18.76-41.82-41.82s18.76-41.82,41.82-41.82,41.82,18.76,41.82,41.82-18.76,41.82-41.82,41.82ZM-166.36,211.78c-21.41,0-38.82,17.41-38.82,38.82s17.41,38.82,38.82,38.82,38.82-17.41,38.82-38.82-17.42-38.82-38.82-38.82Z"/>
      <path class="st0" d="M-166.36,268.97c-10.13,0-18.37-8.24-18.37-18.37s8.24-18.37,18.37-18.37,18.37,8.24,18.37,18.37-8.24,18.37-18.37,18.37ZM-166.36,234.23c-9.03,0-16.37,7.35-16.37,16.37s7.35,16.37,16.37,16.37,16.37-7.35,16.37-16.37-7.35-16.37-16.37-16.37Z"/>
      <path class="st0" d="M-166.36,278.48c-15.37,0-27.88-12.51-27.88-27.88s12.51-27.88,27.88-27.88,27.88,12.51,27.88,27.88-12.51,27.88-27.88,27.88ZM-166.36,224.72c-14.27,0-25.88,11.61-25.88,25.88s11.61,25.88,25.88,25.88,25.88-11.61,25.88-25.88-11.61-25.88-25.88-25.88Z"/>
    </g>
  </g>
  <g id="Layer_8" class="st4">
    <g>
      <path class="st0" d="M-62.12,292.72c-23.06,0-41.82-18.76-41.82-41.82s18.76-41.82,41.82-41.82,41.82,18.76,41.82,41.82-18.76,41.82-41.82,41.82ZM-62.12,212.08c-21.41,0-38.82,17.41-38.82,38.82s17.42,38.82,38.82,38.82,38.82-17.41,38.82-38.82-17.41-38.82-38.82-38.82Z"/>
      <path class="st0" d="M-62.12,265.34c-7.96,0-14.44-6.48-14.44-14.44s6.48-14.44,14.44-14.44,14.44,6.48,14.44,14.44-6.48,14.44-14.44,14.44ZM-62.12,238.46c-6.86,0-12.44,5.58-12.44,12.44s5.58,12.44,12.44,12.44,12.44-5.58,12.44-12.44-5.58-12.44-12.44-12.44Z"/>
      <path class="st0" d="M-39.62,273.4h-45.01v-45.01h45.01v45.01ZM-82.62,271.4h41.01v-41.01h-41.01v41.01Z"/>
    </g>
  </g>
  <g id="Layer_9" class="st4">
    <g>
      <path class="st0" d="M42.12,292.12c-23.06,0-41.82-18.76-41.82-41.82s18.76-41.82,41.82-41.82,41.82,18.76,41.82,41.82-18.76,41.82-41.82,41.82ZM42.12,211.48c-21.41,0-38.82,17.41-38.82,38.82s17.41,38.82,38.82,38.82,38.82-17.41,38.82-38.82-17.42-38.82-38.82-38.82Z"/>
      <path class="st0" d="M42.12,278.18c-15.37,0-27.88-12.51-27.88-27.88s12.51-27.88,27.88-27.88,27.88,12.51,27.88,27.88-12.51,27.88-27.88,27.88ZM42.12,224.42c-14.27,0-25.88,11.61-25.88,25.88s11.61,25.88,25.88,25.88,25.88-11.61,25.88-25.88-11.61-25.88-25.88-25.88Z"/>
      <path class="st0" d="M56.56,264.74h-28.88v-28.88h28.88v28.88ZM29.68,262.74h24.88v-24.88h-24.88v24.88Z"/>
    </g>
  </g>
</svg>