<?xml version="1.0" encoding="UTF-8"?>
<svg xmlns="http://www.w3.org/2000/svg" version="1.1" viewBox="0 0 84.24 84.24">
  <!-- Generator: Adobe Illustrator 29.1.0, SVG Export Plug-In . SVG Version: 2.1.0 Build 142)  -->
  <defs>
    <style>
      .st0 {
        fill: #be69a9;
      }

      .st1 {
        fill: #009449;
      }

      .st2 {
        stroke: #4889c8;
      }

      .st2, .st3 {
        fill: none;
        stroke-miterlimit: 10;
        stroke-width: 3px;
      }

      .st4 {
        display: none;
      }

      .st5 {
        fill: #4889c8;
      }

      .st3 {
        stroke: #498ac9;
      }

      .st6 {
        fill: #498ac9;
      }
    </style>
  </defs>

<circle cx="42.12" cy="42.12" r="41" fill="black" opacity="0.8"/>

  <g id="Layer_1" class="st4">

    <g>
      <path class="st6" d="M42.12-20.3C19.06-20.3.3-39.06.3-62.12s18.76-41.82,41.82-41.82,41.82,18.76,41.82,41.82-18.76,41.82-41.82,41.82ZM42.12-100.94c-21.4,0-38.82,17.41-38.82,38.82S20.72-23.3,42.12-23.3s38.82-17.41,38.82-38.82-17.41-38.82-38.82-38.82Z"/>
      <rect class="st6" x="21.97" y="-74.06" width="3" height="61.25" transform="translate(37.63 3.87) rotate(-45.05)"/>
      <ellipse class="st6" cx="49.52" cy="-69.7" rx="17.72" ry="17.57"/>
      <path class="st3" d="M21.81-41.23"/>
      <rect class="st6" x="11.98" y="-39.45" width="13.07" height="3" transform="translate(32.11 2.02) rotate(-44.79)"/>
      <rect class="st6" x="13.24" y="-67.97" width="67.56" height="3" transform="translate(60.84 13.76) rotate(-45.05)"/>
    </g>
  </g>
  <g id="Layer_2" class="st4">
    <g>
      <path class="st6" d="M146.78-20.3c-23.06,0-41.82-18.76-41.82-41.82s18.76-41.82,41.82-41.82,41.82,18.76,41.82,41.82-18.76,41.82-41.82,41.82ZM146.78-100.94c-21.41,0-38.82,17.42-38.82,38.82s17.42,38.82,38.82,38.82,38.82-17.42,38.82-38.82-17.42-38.82-38.82-38.82Z"/>
      <rect class="st6" x="154.9" y="-109.72" width="3" height="75.93" transform="translate(96.68 89.62) rotate(-45.05)"/>
      <rect class="st6" x="106.16" y="-63.19" width="81.86" height="3" transform="translate(87.28 86.17) rotate(-45.22)"/>
      <path class="st3" d="M126.47-41.23"/>
      <rect class="st6" x="143.75" y="-100.42" width="3" height="80.15" transform="translate(85.33 85.09) rotate(-45.05)"/>
    </g>
  </g>
  <g id="Layer_3" class="st4">
    <g>
      <path class="st5" d="M250.6-20.3c-23.06,0-41.82-18.76-41.82-41.82s18.76-41.82,41.82-41.82,41.82,18.76,41.82,41.82-18.76,41.82-41.82,41.82ZM250.6-100.94c-21.41,0-38.82,17.42-38.82,38.82s17.41,38.82,38.82,38.82,38.82-17.42,38.82-38.82-17.42-38.82-38.82-38.82Z"/>
      <rect class="st5" x="267.5" y="-111.3" width="3" height="61.25" transform="translate(136.04 166.69) rotate(-45.05)"/>
      <ellipse class="st5" cx="243.25" cy="-54.34" rx="17.72" ry="17.57"/>
      <path class="st2" d="M230.29-41.23"/>
      <rect class="st5" x="220.46" y="-39.45" width="13.07" height="3" transform="translate(92.63 148.9) rotate(-44.79)"/>
      <rect class="st5" x="249.68" y="-79.51" width="34.83" height="3" transform="translate(134.46 166.6) rotate(-45.25)"/>
    </g>
  </g>
  <g id="Layer_4">
    <g>
      <path class="st1" d="M42.12,83.87C19.06,83.87.3,65.1.3,42.04S19.06.22,42.12.22s41.82,18.76,41.82,41.82-18.76,41.82-41.82,41.82ZM42.12,3.22C20.71,3.22,3.3,20.64,3.3,42.04s17.41,38.82,38.82,38.82,38.82-17.42,38.82-38.82S63.53,3.22,42.12,3.22Z"/>
      <path class="st1" d="M42.12,25.87c-9.23,0-17.13-6.66-17.13-8.74s7.9-8.74,17.13-8.74,17.13,6.66,17.13,8.74-7.9,8.74-17.13,8.74ZM27.04,17.13c.8,1.39,7.09,6.74,15.08,6.74s14.28-5.35,15.08-6.74c-.8-1.39-7.09-6.74-15.08-6.74s-14.28,5.35-15.08,6.74ZM57.27,17.26h0ZM26.97,17.26h0Z"/>
      <path class="st1" d="M42.12,75.7c-9.23,0-17.13-6.66-17.13-8.74s7.9-8.74,17.13-8.74,17.13,6.66,17.13,8.74-7.9,8.74-17.13,8.74ZM27.04,66.96c.8,1.39,7.09,6.74,15.08,6.74s14.28-5.35,15.08-6.74c-.8-1.39-7.09-6.74-15.08-6.74s-14.28,5.35-15.08,6.74ZM57.27,66.82h0ZM26.97,66.82"/>
      <path class="st1" d="M18.25,59.17c-2.08,0-8.74-7.9-8.74-17.13s6.66-17.13,8.74-17.13,8.74,7.9,8.74,17.13-6.66,17.13-8.74,17.13ZM18.25,26.96c-1.39.8-6.74,7.1-6.74,15.08s5.35,14.28,6.74,15.08c1.39-.8,6.74-7.09,6.74-15.08s-5.35-14.28-6.74-15.08Z"/>
      <path class="st1" d="M65.85,59.17c-2.08,0-8.74-7.9-8.74-17.13s6.66-17.13,8.74-17.13,8.74,7.9,8.74,17.13-6.66,17.13-8.74,17.13ZM65.85,26.96c-1.39.8-6.74,7.09-6.74,15.08s5.35,14.28,6.74,15.08c1.39-.8,6.74-7.09,6.74-15.08s-5.35-14.28-6.74-15.08Z"/>
      <path class="st1" d="M42.05,51.62c-5.7,0-7.22-5.94-7.22-9.45,0-.42.08-10.2,7.22-10.2,6.04,0,7.36,7.36,7.36,10.2,0,2.63-1.32,9.45-7.36,9.45ZM42.05,33.98c-5.16,0-5.22,8.11-5.22,8.2,0,.3.06,7.45,5.22,7.45s5.36-7.37,5.36-7.45c0-.08-.15-8.2-5.36-8.2Z"/>
    </g>
  </g>
  <g id="Layer_5" class="st4">
    <g>
      <path class="st1" d="M146.36,83.94c-22.2,0-40.54-17.35-41.76-39.5-.65-11.84,3.8-23.45,12.22-31.86C125.23,4.17,136.84-.29,148.68.36c22.15,1.21,39.5,19.56,39.5,41.76,0,15.15-5.28,24.37-9.8,27.67-1.89,1.38-3.81,1.87-5.41,1.36l-.24-.08-.2-.15c-.28-.21-.57-.43-.85-.64.07.13.12.25.17.37.61,1.52.3,3.3-.86,5.01-2.72,4-10.61,8.28-24.64,8.28ZM146.41,3.3c-10.25,0-20.16,4.09-27.47,11.4-7.81,7.81-11.95,18.59-11.34,29.58,1.13,20.56,18.15,36.66,38.76,36.66,12.87,0,19.98-3.75,22.16-6.96.58-.86.78-1.65.56-2.22-.32-.81-2.77-3.07-5.14-5.25-6.17-5.68-15.49-14.25-18.71-23.97l-.25-.75.49-.72c.34-.45.9-.68,1.5-.65l.78.04.42.67c.09.15,9.18,14.59,25.92,27.21.64.09,1.56-.26,2.53-.97,4.26-3.11,8.57-12.13,8.57-25.25,0-20.61-16.1-37.63-36.66-38.76-.7-.04-1.41-.06-2.11-.06Z"/>
      <polygon class="st1" points="140.79 35.87 129.8 21.46 142.31 34.57 140.79 35.87 140.79 35.87"/>
      <polygon class="st1" points="123.83 40.15 135.35 41.85 134.89 43.79 123.83 40.15 123.83 40.15"/>
      <polygon class="st1" points="126.25 54.58 135.68 47.77 136.73 49.48 126.41 54.84 126.25 54.58 126.25 54.58"/>
      <polygon class="st1" points="139.17 62.95 140.87 51.44 142.82 51.9 139.17 62.95 139.17 62.95"/>
      <path class="st1" d="M167.79,42.02l-11.53-1.7.46-1.95s11.09,3.62,11.07,3.64h0Z"/>
      <polygon class="st1" points="165.33 27.52 155.94 34.4 154.89 32.69 165.24 27.38 165.33 27.52 165.33 27.52"/>
      <polygon class="st1" points="152.44 19.22 150.75 30.73 148.8 30.27 152.44 19.22 152.44 19.22"/>
    </g>
  </g>
  <g id="Layer_6" class="st4">
    <g>
      <path class="st1" d="M250.6,83.44c-22.78,0-41.32-18.54-41.32-41.32S227.82.8,250.6.8s41.32,18.54,41.32,41.32-18.54,41.32-41.32,41.32ZM250.6,2.8c-21.68,0-39.32,17.64-39.32,39.32s17.64,39.32,39.32,39.32,39.32-17.64,39.32-39.32S272.28,2.8,250.6,2.8Z"/>
      <circle class="st1" cx="255.16" cy="40.21" r="10.08"/>
    </g>
  </g>
  <g id="Layer_7" class="st4">
    <g>
      <path class="st0" d="M42.12,188.18C19.06,188.18.3,169.42.3,146.36s18.76-41.82,41.82-41.82,41.82,18.76,41.82,41.82-18.76,41.82-41.82,41.82ZM42.12,107.54c-21.41,0-38.82,17.41-38.82,38.82s17.41,38.82,38.82,38.82,38.82-17.41,38.82-38.82-17.42-38.82-38.82-38.82Z"/>
      <path class="st0" d="M42.12,164.73c-10.13,0-18.37-8.24-18.37-18.37s8.24-18.37,18.37-18.37,18.37,8.24,18.37,18.37-8.24,18.37-18.37,18.37ZM42.12,129.99c-9.03,0-16.37,7.35-16.37,16.37s7.35,16.37,16.37,16.37,16.37-7.35,16.37-16.37-7.35-16.37-16.37-16.37Z"/>
      <path class="st0" d="M42.12,174.24c-15.37,0-27.88-12.51-27.88-27.88s12.51-27.88,27.88-27.88,27.88,12.51,27.88,27.88-12.51,27.88-27.88,27.88ZM42.12,120.48c-14.27,0-25.88,11.61-25.88,25.88s11.61,25.88,25.88,25.88,25.88-11.61,25.88-25.88-11.61-25.88-25.88-25.88Z"/>
    </g>
  </g>
  <g id="Layer_8" class="st4">
    <g>
      <path class="st0" d="M146.36,188.48c-23.06,0-41.82-18.76-41.82-41.82s18.76-41.82,41.82-41.82,41.82,18.76,41.82,41.82-18.76,41.82-41.82,41.82ZM146.36,107.84c-21.41,0-38.82,17.41-38.82,38.82s17.42,38.82,38.82,38.82,38.82-17.41,38.82-38.82-17.41-38.82-38.82-38.82Z"/>
      <path class="st0" d="M146.36,161.1c-7.96,0-14.44-6.48-14.44-14.44s6.48-14.44,14.44-14.44,14.44,6.48,14.44,14.44-6.48,14.44-14.44,14.44ZM146.36,134.22c-6.86,0-12.44,5.58-12.44,12.44s5.58,12.44,12.44,12.44,12.44-5.58,12.44-12.44-5.58-12.44-12.44-12.44Z"/>
      <path class="st0" d="M168.86,169.16h-45.01v-45.01h45.01v45.01ZM125.86,167.16h41.01v-41.01h-41.01v41.01Z"/>
    </g>
  </g>
  <g id="Layer_9" class="st4">
    <g>
      <path class="st0" d="M250.6,187.88c-23.06,0-41.82-18.76-41.82-41.82s18.76-41.82,41.82-41.82,41.82,18.76,41.82,41.82-18.76,41.82-41.82,41.82ZM250.6,107.24c-21.41,0-38.82,17.41-38.82,38.82s17.41,38.82,38.82,38.82,38.82-17.41,38.82-38.82-17.42-38.82-38.82-38.82Z"/>
      <path class="st0" d="M250.6,173.94c-15.37,0-27.88-12.51-27.88-27.88s12.51-27.88,27.88-27.88,27.88,12.51,27.88,27.88-12.51,27.88-27.88,27.88ZM250.6,120.18c-14.27,0-25.88,11.61-25.88,25.88s11.61,25.88,25.88,25.88,25.88-11.61,25.88-25.88-11.61-25.88-25.88-25.88Z"/>
      <path class="st0" d="M265.04,160.5h-28.88v-28.88h28.88v28.88ZM238.16,158.5h24.88v-24.88h-24.88v24.88Z"/>
    </g>
  </g>
</svg>