<?xml version="1.0" encoding="UTF-8"?>
<svg xmlns="http://www.w3.org/2000/svg" version="1.1" viewBox="0 0 84.24 84.24">
  <!-- Generator: Adobe Illustrator 29.1.0, SVG Export Plug-In . SVG Version: 2.1.0 Build 142)  -->
  <defs>
    <style>
      .st0 {
        fill: #be69a9;
      }

      .st1 {
        fill: #009449;
      }

      .st2 {
        stroke: #4889c8;
      }

      .st2, .st3 {
        fill: none;
        stroke-miterlimit: 10;
        stroke-width: 3px;
      }

      .st4 {
        display: none;
      }

      .st5 {
        fill: #4889c8;
      }

      .st3 {
        stroke: #498ac9;
      }

      .st6 {
        fill: #498ac9;
      }
    </style>
  </defs>
  <g id="Layer_1" class="st4">
<circle cx="42.12" cy="42.12" r="42.12" fill="black" opacity="0.8"/>
    <g>
      <path class="st6" d="M-166.36-124.54c-23.06,0-41.82-18.76-41.82-41.82s18.76-41.82,41.82-41.82,41.82,18.76,41.82,41.82-18.76,41.82-41.82,41.82ZM-166.36-205.18c-21.4,0-38.82,17.41-38.82,38.82s17.41,38.82,38.82,38.82,38.82-17.41,38.82-38.82-17.41-38.82-38.82-38.82Z"/>
      <rect class="st6" x="-186.51" y="-178.3" width="3" height="61.25" transform="translate(50.21 -174.27) rotate(-45.05)"/>
      <ellipse class="st6" cx="-158.96" cy="-173.94" rx="17.72" ry="17.57"/>
      <path class="st3" d="M-186.67-145.47"/>
      <rect class="st6" x="-196.5" y="-143.69" width="13.07" height="3" transform="translate(45.03 -175.11) rotate(-44.79)"/>
      <rect class="st6" x="-195.24" y="-172.21" width="67.56" height="3" transform="translate(73.42 -164.39) rotate(-45.05)"/>
    </g>
  </g>
  <g id="Layer_2" class="st4">
    <g>
      <path class="st6" d="M-61.7-124.54c-23.06,0-41.82-18.76-41.82-41.82s18.76-41.82,41.82-41.82,41.82,18.76,41.82,41.82-18.76,41.82-41.82,41.82ZM-61.7-205.18c-21.41,0-38.82,17.42-38.82,38.82s17.42,38.82,38.82,38.82,38.82-17.42,38.82-38.82-17.42-38.82-38.82-38.82Z"/>
      <rect class="st6" x="-53.58" y="-213.96" width="3" height="75.93" transform="translate(109.27 -88.51) rotate(-45.05)"/>
      <rect class="st6" x="-102.32" y="-167.43" width="81.86" height="3" transform="translate(99.64 -92.64) rotate(-45.22)"/>
      <path class="st3" d="M-82.01-145.47"/>
      <rect class="st6" x="-64.73" y="-204.66" width="3" height="80.15" transform="translate(97.92 -93.05) rotate(-45.05)"/>
    </g>
  </g>
  <g id="Layer_3" class="st4">
    <g>
      <path class="st5" d="M42.12-124.54C19.06-124.54.3-143.3.3-166.36s18.76-41.82,41.82-41.82,41.82,18.76,41.82,41.82-18.76,41.82-41.82,41.82ZM42.12-205.18c-21.41,0-38.82,17.42-38.82,38.82s17.41,38.82,38.82,38.82,38.82-17.42,38.82-38.82-17.42-38.82-38.82-38.82Z"/>
      <rect class="st5" x="59.02" y="-215.54" width="3" height="61.25" transform="translate(148.62 -11.44) rotate(-45.05)"/>
      <ellipse class="st5" cx="34.77" cy="-158.58" rx="17.72" ry="17.57"/>
      <path class="st2" d="M21.81-145.47"/>
      <rect class="st5" x="11.98" y="-143.69" width="13.07" height="3" transform="translate(105.55 -28.24) rotate(-44.79)"/>
      <rect class="st5" x="41.2" y="-183.75" width="34.83" height="3" transform="translate(146.78 -12.32) rotate(-45.25)"/>
    </g>
  </g>
  <g id="Layer_4" class="st4">
    <g>
      <path class="st1" d="M-166.36-20.37c-23.06,0-41.82-18.76-41.82-41.82s18.76-41.82,41.82-41.82,41.82,18.76,41.82,41.82-18.76,41.82-41.82,41.82ZM-166.36-101.02c-21.41,0-38.82,17.42-38.82,38.82s17.41,38.82,38.82,38.82,38.82-17.42,38.82-38.82-17.41-38.82-38.82-38.82Z"/>
      <path class="st1" d="M-166.36-78.37c-9.23,0-17.13-6.66-17.13-8.74s7.9-8.74,17.13-8.74,17.13,6.66,17.13,8.74-7.9,8.74-17.13,8.74ZM-181.44-87.11c.8,1.39,7.09,6.74,15.08,6.74s14.28-5.35,15.08-6.74c-.8-1.39-7.09-6.74-15.08-6.74s-14.28,5.35-15.08,6.74ZM-151.21-86.98h0ZM-181.51-86.98h0Z"/>
      <path class="st1" d="M-166.36-28.54c-9.23,0-17.13-6.66-17.13-8.74s7.9-8.74,17.13-8.74,17.13,6.66,17.13,8.74-7.9,8.74-17.13,8.74ZM-181.44-37.28c.8,1.39,7.09,6.74,15.08,6.74s14.28-5.35,15.08-6.74c-.8-1.39-7.09-6.74-15.08-6.74s-14.28,5.35-15.08,6.74ZM-151.21-37.42h0ZM-181.51-37.42"/>
      <path class="st1" d="M-190.23-45.07c-2.08,0-8.74-7.9-8.74-17.13s6.66-17.13,8.74-17.13,8.74,7.9,8.74,17.13-6.66,17.13-8.74,17.13ZM-190.23-77.28c-1.39.8-6.74,7.1-6.74,15.08s5.35,14.28,6.74,15.08c1.39-.8,6.74-7.09,6.74-15.08s-5.35-14.28-6.74-15.08Z"/>
      <path class="st1" d="M-142.63-45.07c-2.08,0-8.74-7.9-8.74-17.13s6.66-17.13,8.74-17.13,8.74,7.9,8.74,17.13-6.66,17.13-8.74,17.13ZM-142.63-77.28c-1.39.8-6.74,7.09-6.74,15.08s5.35,14.28,6.74,15.08c1.39-.8,6.74-7.09,6.74-15.08s-5.35-14.28-6.74-15.08Z"/>
      <path class="st1" d="M-166.43-52.62c-5.7,0-7.22-5.94-7.22-9.45,0-.42.08-10.2,7.22-10.2,6.04,0,7.36,7.36,7.36,10.2,0,2.63-1.32,9.45-7.36,9.45ZM-166.43-70.26c-5.16,0-5.22,8.11-5.22,8.2,0,.3.06,7.45,5.22,7.45s5.36-7.37,5.36-7.45c0-.08-.15-8.2-5.36-8.2Z"/>
    </g>
  </g>
  <g id="Layer_5" class="st4">
    <g>
      <path class="st1" d="M-62.12-20.3c-22.2,0-40.54-17.35-41.76-39.5-.65-11.84,3.8-23.45,12.22-31.86,8.41-8.41,20.02-12.87,31.86-12.22,22.15,1.21,39.5,19.56,39.5,41.76,0,15.15-5.28,24.37-9.8,27.67-1.89,1.38-3.81,1.87-5.41,1.36l-.24-.08-.2-.15c-.28-.21-.57-.43-.85-.64.07.13.12.25.17.37.61,1.52.3,3.3-.86,5.01-2.72,4-10.61,8.28-24.64,8.28ZM-62.07-100.94c-10.25,0-20.16,4.09-27.47,11.4-7.81,7.81-11.95,18.59-11.34,29.58,1.13,20.56,18.15,36.66,38.76,36.66,12.87,0,19.98-3.75,22.16-6.96.58-.86.78-1.65.56-2.22-.32-.81-2.77-3.07-5.14-5.25-6.17-5.68-15.49-14.25-18.71-23.97l-.25-.75.49-.72c.34-.45.9-.68,1.5-.65l.78.04.42.67c.09.15,9.18,14.59,25.92,27.21.64.09,1.56-.26,2.53-.97,4.26-3.11,8.57-12.13,8.57-25.25,0-20.61-16.1-37.63-36.66-38.76-.7-.04-1.41-.06-2.11-.06Z"/>
      <polygon class="st1" points="-67.69 -68.37 -78.68 -82.78 -66.17 -69.67 -67.69 -68.37 -67.69 -68.37"/>
      <polygon class="st1" points="-84.65 -64.09 -73.13 -62.39 -73.59 -60.45 -84.65 -64.09 -84.65 -64.09"/>
      <polygon class="st1" points="-82.23 -49.66 -72.8 -56.47 -71.75 -54.76 -82.07 -49.4 -82.23 -49.66 -82.23 -49.66"/>
      <polygon class="st1" points="-69.31 -41.29 -67.61 -52.8 -65.66 -52.34 -69.31 -41.29 -69.31 -41.29"/>
      <path class="st1" d="M-40.69-62.22l-11.53-1.7.46-1.95s11.09,3.62,11.07,3.64h0Z"/>
      <polygon class="st1" points="-43.15 -76.72 -52.54 -69.84 -53.59 -71.55 -43.24 -76.86 -43.15 -76.72 -43.15 -76.72"/>
      <polygon class="st1" points="-56.04 -85.02 -57.73 -73.51 -59.68 -73.97 -56.04 -85.02 -56.04 -85.02"/>
    </g>
  </g>
  <g id="Layer_6" class="st4">
    <g>
      <path class="st1" d="M42.12-20.8C19.34-20.8.8-39.34.8-62.12s18.54-41.32,41.32-41.32,41.32,18.54,41.32,41.32-18.54,41.32-41.32,41.32ZM42.12-101.44c-21.68,0-39.32,17.64-39.32,39.32S20.44-22.8,42.12-22.8s39.32-17.64,39.32-39.32-17.64-39.32-39.32-39.32Z"/>
      <circle class="st1" cx="46.68" cy="-64.03" r="10.08"/>
    </g>
  </g>
  <g id="Layer_7" class="st4">
    <g>
      <path class="st0" d="M-166.36,83.94c-23.06,0-41.82-18.76-41.82-41.82S-189.42.3-166.36.3s41.82,18.76,41.82,41.82-18.76,41.82-41.82,41.82ZM-166.36,3.3c-21.41,0-38.82,17.41-38.82,38.82s17.41,38.82,38.82,38.82,38.82-17.41,38.82-38.82S-144.96,3.3-166.36,3.3Z"/>
      <path class="st0" d="M-166.36,60.49c-10.13,0-18.37-8.24-18.37-18.37s8.24-18.37,18.37-18.37,18.37,8.24,18.37,18.37-8.24,18.37-18.37,18.37ZM-166.36,25.75c-9.03,0-16.37,7.35-16.37,16.37s7.35,16.37,16.37,16.37,16.37-7.35,16.37-16.37-7.35-16.37-16.37-16.37Z"/>
      <path class="st0" d="M-166.36,70c-15.37,0-27.88-12.51-27.88-27.88s12.51-27.88,27.88-27.88,27.88,12.51,27.88,27.88-12.51,27.88-27.88,27.88ZM-166.36,16.24c-14.27,0-25.88,11.61-25.88,25.88s11.61,25.88,25.88,25.88,25.88-11.61,25.88-25.88-11.61-25.88-25.88-25.88Z"/>
    </g>
  </g>
  <g id="Layer_8" class="st4">
    <g>
      <path class="st0" d="M-62.12,84.24c-23.06,0-41.82-18.76-41.82-41.82S-85.18.6-62.12.6-20.3,19.36-20.3,42.42s-18.76,41.82-41.82,41.82ZM-62.12,3.6c-21.41,0-38.82,17.41-38.82,38.82s17.42,38.82,38.82,38.82S-23.3,63.83-23.3,42.42-40.71,3.6-62.12,3.6Z"/>
      <path class="st0" d="M-62.12,56.86c-7.96,0-14.44-6.48-14.44-14.44s6.48-14.44,14.44-14.44,14.44,6.48,14.44,14.44-6.48,14.44-14.44,14.44ZM-62.12,29.98c-6.86,0-12.44,5.58-12.44,12.44s5.58,12.44,12.44,12.44,12.44-5.58,12.44-12.44-5.58-12.44-12.44-12.44Z"/>
      <path class="st0" d="M-39.62,64.92h-45.01V19.92h45.01v45.01ZM-82.62,62.92h41.01V21.92h-41.01v41.01Z"/>
    </g>
  </g>
  <g id="Layer_9">
    <g>
      <path class="st0" d="M42.12,83.64C19.06,83.64.3,64.88.3,41.82S19.06,0,42.12,0s41.82,18.76,41.82,41.82-18.76,41.82-41.82,41.82ZM42.12,3C20.71,3,3.3,20.41,3.3,41.82s17.41,38.82,38.82,38.82,38.82-17.41,38.82-38.82S63.52,3,42.12,3Z"/>
      <path class="st0" d="M42.12,69.7c-15.37,0-27.88-12.51-27.88-27.88s12.51-27.88,27.88-27.88,27.88,12.51,27.88,27.88-12.51,27.88-27.88,27.88ZM42.12,15.94c-14.27,0-25.88,11.61-25.88,25.88s11.61,25.88,25.88,25.88,25.88-11.61,25.88-25.88-11.61-25.88-25.88-25.88Z"/>
      <path class="st0" d="M56.56,56.26h-28.88v-28.88h28.88v28.88ZM29.68,54.26h24.88v-24.88h-24.88v24.88Z"/>
    </g>
  </g>
</svg>